<?xml version="1.0" standalone="no"?>
<!DOCTYPE svg PUBLIC "-//W3C//DTD SVG 20010904//EN"
 "http://www.w3.org/TR/2001/REC-SVG-20010904/DTD/svg10.dtd">
<svg version="1.0" xmlns="http://www.w3.org/2000/svg"
 width="1618.000000pt" height="1587.000000pt" viewBox="0 0 1618.000000 1587.000000"
 preserveAspectRatio="xMidYMid meet">
<metadata>
Created by potrace 1.16, written by Peter Selinger 2001-2019
</metadata>
<g transform="translate(0.000000,1587.000000) scale(0.100000,-0.100000)"
fill="#000000" stroke="none">
<path d="M7824 15138 c-3 -4 -4 -59 -3 -122 1 -63 -2 -119 -5 -125 -4 -6 -40
-11 -86 -11 -72 0 -81 -2 -94 -22 -15 -24 -20 -89 -18 -225 2 -98 7 -101 107
-78 36 8 70 15 75 15 18 0 22 -44 21 -245 -1 -183 -4 -212 -18 -222 -12 -9
-63 -13 -169 -13 l-153 0 -31 33 c-17 17 -38 46 -46 64 -9 18 -35 48 -59 68
-40 32 -49 35 -108 35 -49 0 -70 -5 -90 -20 -14 -11 -33 -23 -44 -28 -86 -36
-161 -121 -170 -194 -7 -47 44 -130 91 -149 17 -7 42 -21 56 -31 19 -13 55
-19 147 -24 138 -8 153 -3 153 50 0 23 9 41 30 61 28 27 33 28 63 17 19 -7 87
-12 159 -12 93 0 128 -4 137 -13 14 -18 -2 -233 -24 -301 -8 -27 -15 -63 -15
-80 0 -55 -6 -57 -151 -61 l-134 -3 -33 35 c-34 38 -40 54 -41 115 -1 31 -6
40 -31 53 -60 31 -206 10 -258 -39 -142 -130 -176 -213 -117 -290 15 -20 31
-36 36 -36 5 0 17 -7 27 -16 61 -55 95 -72 151 -79 106 -12 163 20 235 133
l24 39 121 6 c66 4 131 3 144 -2 32 -13 36 -40 26 -174 -5 -62 -11 -276 -14
-477 -7 -483 -14 -795 -23 -1015 -4 -99 -6 -470 -6 -825 1 -355 1 -883 0
-1175 -2 -940 -1 -2076 3 -2230 3 -149 3 -187 -1 -235 -4 -36 -1 -955 2 -1085
2 -67 -2 -134 -10 -170 -13 -59 -42 -105 -66 -105 -18 0 -21 -36 -11 -130 7
-76 11 -156 23 -450 1 -47 5 -191 7 -320 4 -200 3 -238 -10 -252 -27 -30 -9
-48 44 -46 26 1 66 -2 89 -6 31 -5 44 -4 54 8 11 14 9 22 -13 54 -24 36 -25
42 -31 277 -12 448 -7 904 14 1155 5 58 7 166 4 240 -14 377 -4 2991 12 3065
3 17 7 626 9 1355 3 1574 11 2324 25 2350 6 12 26 21 54 25 78 12 81 10 80
-76 -1 -41 -7 -85 -13 -97 -9 -16 -13 -151 -16 -470 -7 -780 -9 -1978 -3
-1988 20 -34 29 -2995 12 -4039 -3 -218 -1 -355 5 -385 7 -28 11 -257 11 -605
1 -640 -2 -729 -31 -809 -8 -23 -9 -39 -4 -45 15 -13 133 -22 140 -10 7 11 7
357 -1 1904 -9 1788 -15 4088 -13 4415 5 566 4 1200 -2 1668 -6 385 -4 462 9
515 17 70 26 83 64 92 20 5 29 2 37 -13 7 -13 12 -382 16 -1133 6 -1149 13
-1876 20 -2059 5 -134 13 -859 20 -1805 3 -407 7 -801 9 -875 3 -145 -9 -546
-18 -620 -21 -172 -25 -267 -22 -507 1 -150 6 -276 10 -280 4 -4 15 -2 25 4
11 7 22 9 25 6 10 -10 7 -61 -4 -68 -5 -3 -10 -15 -10 -25 0 -10 -8 -26 -17
-36 -16 -15 -18 -38 -18 -164 0 -110 4 -154 15 -174 13 -25 13 -29 -3 -37 -21
-12 -22 -33 -3 -52 15 -15 19 -134 4 -143 -14 -9 -9 -44 8 -61 12 -13 14 -25
9 -52 -4 -20 -8 -52 -7 -71 0 -19 1 -52 1 -73 2 -77 -9 -200 -18 -211 -6 -7
-7 -22 -4 -35 4 -15 -2 -33 -17 -53 -19 -25 -20 -34 -10 -52 10 -20 18 -22
102 -21 106 0 125 13 94 61 -17 25 -18 59 -16 518 1 270 3 518 3 551 1 40 -5
74 -17 99 -17 37 -17 39 5 99 21 56 23 75 20 207 -4 199 -6 229 -20 275 -15
48 -26 498 -13 521 7 13 12 11 27 -12 12 -19 19 -52 21 -106 2 -45 10 -88 18
-101 10 -15 17 -81 24 -212 7 -118 17 -211 27 -245 18 -62 39 -358 30 -432 -6
-50 -6 -157 -1 -923 3 -562 -4 -776 -27 -820 -8 -17 -18 -49 -22 -70 -4 -22
-15 -51 -25 -65 -9 -14 -21 -37 -25 -50 -4 -14 -16 -40 -27 -57 -22 -37 -41
-190 -36 -289 3 -52 6 -59 25 -62 12 -2 35 6 50 16 15 11 57 25 93 32 36 6 72
18 80 25 8 7 36 15 61 18 26 4 68 18 94 32 27 14 58 25 71 25 13 0 27 7 31 15
9 15 139 85 159 85 6 0 17 7 24 14 6 8 28 20 48 27 20 6 46 20 58 31 12 10 37
21 57 25 20 3 42 12 48 19 6 8 30 19 53 25 22 6 49 18 60 27 26 25 298 30 383
8 33 -8 109 -20 169 -27 67 -7 121 -19 139 -30 17 -9 48 -21 70 -24 22 -4 48
-15 59 -24 23 -21 133 -59 216 -75 36 -7 87 -20 113 -30 26 -9 63 -16 81 -16
18 0 55 -7 82 -15 118 -36 144 -3 103 131 -12 38 -16 69 -29 199 -11 112 -19
155 -30 170 -4 6 -15 53 -23 105 -9 52 -22 111 -30 130 -8 19 -18 56 -21 82
-4 26 -16 58 -27 71 -10 14 -19 38 -19 55 0 16 -11 50 -25 76 -14 26 -25 62
-25 80 0 18 -12 70 -26 117 -22 75 -25 102 -26 247 -1 152 1 166 21 192 16 22
21 44 22 92 0 35 4 88 8 118 5 30 6 61 4 68 -8 20 -57 14 -93 -13 -32 -24 -40
-25 -176 -25 -122 0 -145 2 -165 18 -13 11 -36 22 -51 26 -27 6 -93 45 -113
66 -5 6 -20 21 -32 32 -13 12 -23 27 -23 34 0 8 -8 18 -19 23 -22 12 -81 101
-81 123 0 8 -9 27 -20 41 -11 14 -23 40 -27 59 -3 18 -17 49 -30 68 -12 19
-23 46 -23 60 0 14 -9 44 -20 65 -12 22 -26 74 -31 115 -6 41 -18 86 -26 98
-8 13 -19 64 -23 114 -6 62 -14 96 -26 109 -16 17 -18 45 -18 247 -1 203 1
231 17 261 11 18 23 63 28 99 5 36 16 73 24 82 8 8 17 36 21 60 4 25 18 58 31
73 12 16 23 33 23 39 0 13 116 128 129 128 5 0 18 11 28 25 15 21 30 27 93 34
41 5 118 7 170 5 130 -7 157 -1 165 36 4 18 0 40 -9 58 -9 17 -20 51 -26 77
-6 26 -20 59 -30 73 -11 13 -20 30 -20 38 0 7 -11 26 -25 42 -14 17 -25 40
-25 51 0 12 -7 38 -15 58 -17 41 -19 128 -4 193 5 24 14 84 18 132 5 58 14 95
24 106 9 10 21 49 26 88 6 38 17 83 25 100 9 16 20 59 25 95 5 35 18 80 28 99
16 32 18 63 18 325 0 250 -2 293 -16 315 -9 14 -22 58 -28 99 -7 43 -20 84
-31 99 -11 13 -20 38 -20 53 0 16 -9 38 -21 50 -12 12 -26 37 -31 56 -5 19
-18 43 -29 54 -10 10 -19 26 -19 35 0 20 -46 96 -82 137 -16 16 -28 33 -28 37
0 15 -263 270 -278 270 -5 0 -17 9 -27 20 -10 11 -24 20 -31 20 -7 0 -26 11
-42 25 -17 14 -34 25 -40 25 -5 0 -26 14 -47 30 -21 17 -43 30 -50 30 -6 0
-20 9 -29 19 -10 11 -31 23 -46 26 -15 3 -36 15 -45 25 -9 10 -34 21 -56 25
-21 4 -49 15 -62 25 -12 10 -41 23 -64 29 -22 6 -46 17 -52 25 -6 7 -52 19
-104 26 -52 7 -99 19 -109 27 -11 10 -45 17 -90 20 -40 3 -83 12 -96 20 -13 8
-66 21 -118 30 -84 14 -97 14 -110 1 -13 -13 -13 -19 0 -54 13 -34 16 -251 23
-1574 10 -1916 10 -2037 -2 -2049 -13 -11 -129 -21 -143 -12 -7 4 -13 153 -16
466 -3 253 -9 622 -12 820 -3 198 -9 668 -13 1045 -6 612 -6 893 -1 1490 1 96
-3 301 -8 455 -12 388 -14 1866 -2 1885 7 12 42 16 162 21 171 6 189 1 218
-59 9 -18 25 -39 38 -48 12 -8 22 -21 22 -29 0 -7 14 -24 32 -37 40 -28 142
-33 161 -7 7 9 26 23 44 32 17 9 42 31 54 49 13 18 26 35 30 38 3 3 12 16 19
30 7 14 21 31 32 38 22 16 25 74 4 91 -8 6 -20 26 -27 44 -17 42 -62 86 -123
120 -68 38 -160 39 -200 2 -15 -14 -33 -25 -41 -25 -8 0 -20 -10 -26 -22 -7
-13 -18 -27 -26 -31 -7 -4 -22 -25 -33 -46 l-19 -39 -137 -7 c-109 -6 -138 -5
-149 6 -10 11 -11 60 -6 224 l6 210 141 2 c130 2 143 1 159 -17 10 -11 24 -20
30 -20 7 0 20 -11 29 -24 8 -13 29 -27 47 -31 17 -4 40 -16 50 -26 15 -15 34
-19 91 -19 l71 0 83 85 c95 97 108 117 99 152 -7 31 -128 176 -158 191 -30 14
-122 42 -140 42 -30 0 -95 -41 -149 -94 -32 -30 -58 -60 -58 -65 0 -5 -7 -17
-16 -26 -15 -15 -15 -17 0 -34 9 -10 16 -23 16 -30 0 -20 -51 -32 -112 -25
-32 4 -95 7 -141 8 l-82 1 -3 200 c-1 110 0 211 4 224 5 23 7 23 68 17 53 -5
65 -4 70 10 10 25 7 98 -5 133 -10 28 -9 37 10 61 60 82 -26 135 -102 62 -28
-26 -29 -27 -43 -8 -8 11 -14 42 -14 69 0 34 -6 57 -20 75 -18 22 -21 39 -19
104 1 43 -1 81 -4 84 -8 9 -388 10 -393 2z m-4 -417 c0 -27 -26 -46 -34 -25
-11 29 -6 44 14 44 13 0 20 -7 20 -19z m540 -35 c0 -17 -11 -30 -36 -45 -40
-24 -54 -20 -54 13 0 26 14 41 45 49 39 9 45 7 45 -17z m-645 -21 c0 -16 -5
-30 -12 -32 -14 -5 -28 40 -18 57 12 19 30 4 30 -25z m433 -477 c9 -9 8 -16
-5 -30 -9 -10 -22 -18 -30 -18 -15 0 -18 -26 -3 -35 16 -10 12 -45 -6 -45 -10
0 -14 6 -11 14 3 7 1 32 -5 55 -6 22 -8 47 -4 56 6 18 47 20 64 3z m-188 -368
c0 -5 -7 -10 -15 -10 -8 0 -15 5 -15 10 0 6 7 10 15 10 8 0 15 -4 15 -10z
m-45 -110 c3 -5 1 -10 -4 -10 -6 0 -11 5 -11 10 0 6 2 10 4 10 3 0 8 -4 11
-10z m232 -102 c-3 -8 -6 -5 -6 6 -1 11 2 17 5 13 3 -3 4 -12 1 -19z m7 -91
c-3 -9 -11 -18 -18 -20 -13 -5 -14 31 -1 52 6 11 9 11 16 -2 5 -8 6 -22 3 -30z
m-14 -67 c-19 -13 -30 -13 -30 0 0 6 10 10 23 10 18 0 19 -2 7 -10z m-1018
-32 c-9 -9 -15 -9 -24 0 -9 9 -7 12 12 12 19 0 21 -3 12 -12z m1025 -20 c-3
-8 -6 -5 -6 6 -1 11 2 17 5 13 3 -3 4 -12 1 -19z m653 -2968 c0 -5 -4 -10 -10
-10 -5 0 -10 5 -10 10 0 6 5 10 10 10 6 0 10 -4 10 -10z m870 -147 c0 -10 -4
-14 -8 -8 -4 6 -11 13 -16 18 -5 4 -2 7 7 7 10 0 17 -8 17 -17z m25 -383 c3
-5 1 -10 -4 -10 -6 0 -11 5 -11 10 0 6 2 10 4 10 3 0 8 -4 11 -10z m319 -55
c3 -8 -2 -21 -10 -29 -8 -8 -21 -13 -29 -10 -15 6 -20 35 -8 47 12 12 41 7 47
-8z m-507 -201 c-3 -3 -12 -4 -19 -1 -8 3 -5 6 6 6 11 1 17 -2 13 -5z m-707
-59 c0 -9 -9 -15 -21 -15 -18 0 -19 2 -9 15 7 8 16 15 21 15 5 0 9 -7 9 -15z
m292 -190 c-3 -21 -7 -23 -23 -14 -16 8 -17 12 -7 24 20 23 36 18 30 -10z
m958 -235 c23 -14 -10 -44 -39 -35 -36 11 -26 35 19 44 3 0 12 -4 20 -9z
m-740 -169 c15 -28 12 -61 -5 -67 -22 -9 -43 12 -40 41 6 47 27 59 45 26z
m386 -42 c3 -6 1 -16 -4 -21 -13 -13 -45 8 -36 23 7 12 31 11 40 -2z m-201
-89 c3 -5 1 -10 -4 -10 -6 0 -11 5 -11 10 0 6 2 10 4 10 3 0 8 -4 11 -10z
m355 -20 c0 -25 -18 -36 -26 -16 -8 21 3 49 16 41 5 -3 10 -15 10 -25z m-450
-40 c0 -15 -7 -20 -25 -20 -27 0 -32 9 -13 28 18 18 38 14 38 -8z m208 -3 c5
-22 -24 -33 -44 -16 -14 12 -14 14 2 26 22 16 38 12 42 -10z m-650 -9 c-7 -19
-38 -22 -38 -4 0 10 9 16 21 16 12 0 19 -5 17 -12z m992 2 c0 -5 -7 -10 -15
-10 -8 0 -15 5 -15 10 0 6 7 10 15 10 8 0 15 -4 15 -10z m-32 -132 c20 -20 14
-56 -14 -74 -22 -15 -27 -15 -35 -3 -10 16 -11 35 -3 67 7 24 33 29 52 10z
m-514 -44 c9 -25 7 -34 -8 -34 -19 0 -29 17 -22 35 7 20 22 19 30 -1z m251
-46 c-9 -39 -11 -42 -24 -33 -6 3 -11 19 -11 36 0 23 4 29 21 29 18 0 20 -4
14 -32z m-50 -223 c0 -12 -40 -19 -61 -11 -9 3 -12 11 -9 16 8 14 70 9 70 -5z
m193 -162 c-4 -43 -24 -55 -37 -21 -10 27 3 58 25 58 11 0 14 -9 12 -37z m108
-42 c4 -33 -12 -52 -22 -27 -7 18 4 71 13 63 3 -4 7 -20 9 -36z m-661 -26 c0
-25 -6 -30 -27 -23 -7 3 -7 11 3 26 18 29 25 28 24 -3z m449 -241 c24 -9 21
-54 -4 -54 -23 0 -35 22 -26 45 6 17 8 17 30 9z m-94 -209 c0 -8 -4 -15 -10
-15 -5 0 -10 7 -10 15 0 8 5 15 10 15 6 0 10 -7 10 -15z m-285 -69 c0 -10 -8
-24 -18 -30 -14 -9 -21 -7 -32 7 -19 27 -8 49 24 45 18 -2 26 -9 26 -22z m235
4 c0 -5 -9 -10 -20 -10 -11 0 -20 5 -20 10 0 6 9 10 20 10 11 0 20 -4 20 -10z
m-240 -600 c0 -13 -5 -18 -15 -14 -8 4 -15 12 -15 20 0 8 7 14 15 14 8 0 15
-9 15 -20z m-388 -139 c7 -10 32 -28 55 -40 43 -21 117 -91 161 -150 28 -37
66 -183 76 -291 4 -41 12 -219 16 -395 7 -245 12 -329 24 -360 8 -22 15 -68
16 -101 0 -44 5 -68 18 -85 11 -13 22 -41 25 -61 16 -100 201 -216 237 -149
17 33 4 147 -19 170 -16 16 -21 34 -21 70 0 71 6 81 49 81 66 0 104 -18 159
-74 51 -53 52 -56 46 -98 -8 -50 -15 -67 -52 -130 -45 -77 -76 -107 -124 -118
-98 -22 -275 -6 -313 30 -12 11 -25 20 -29 20 -4 0 -25 19 -46 43 -88 97 -126
146 -135 177 -4 14 -15 39 -25 55 -29 48 -35 163 -35 645 0 414 -2 458 -17
485 -10 17 -18 35 -18 41 0 21 -79 130 -102 141 -41 19 -52 3 -45 -67 3 -35
11 -66 17 -70 14 -9 29 -72 30 -121 0 -25 -5 -39 -16 -43 -9 -4 -64 -3 -121 0
l-103 7 -30 40 c-26 36 -30 49 -30 108 0 47 5 72 15 83 8 8 19 26 25 41 5 14
18 28 27 32 10 4 28 17 40 30 12 13 34 23 49 23 14 0 39 11 56 25 38 32 119
36 140 6z m-378 -12 c-8 -14 -24 -10 -24 6 0 9 6 12 15 9 8 -4 12 -10 9 -15z
m-244 -505 c0 -20 -4 -33 -10 -29 -11 7 -9 65 3 65 4 0 7 -16 7 -36z m0 -78
c0 -30 -9 -56 -20 -56 -7 0 -8 40 -1 73 3 18 21 4 21 -17z m-650 -425 c0 -23
-16 -36 -25 -21 -9 14 1 40 15 40 5 0 10 -9 10 -19z m577 -143 c-3 -8 -6 -5
-6 6 -1 11 2 17 5 13 3 -3 4 -12 1 -19z m1477 -649 c-3 -5 -10 -7 -15 -3 -5 3
-7 10 -3 15 3 5 10 7 15 3 5 -3 7 -10 3 -15z m-614 -84 c0 -8 -4 -15 -10 -15
-5 0 -7 7 -4 15 4 8 8 15 10 15 2 0 4 -7 4 -15z m-150 -5 c0 -5 -2 -10 -4 -10
-3 0 -8 5 -11 10 -3 6 -1 10 4 10 6 0 11 -4 11 -10z m64 -61 c-3 -5 -10 -7
-15 -3 -5 3 -7 10 -3 15 3 5 10 7 15 3 5 -3 7 -10 3 -15z m210 -88 c3 -5 -1
-12 -10 -15 -22 -9 -24 -8 -24 9 0 16 25 21 34 6z m736 -296 c0 -2 -7 -5 -15
-9 -9 -3 -15 0 -15 9 0 9 6 12 15 9 8 -4 15 -7 15 -9z m-883 -141 c14 -37 -80
-62 -107 -29 -20 25 5 45 57 45 31 0 45 -5 50 -16z m1023 -39 c0 -14 -4 -25
-10 -25 -5 0 -10 11 -10 25 0 14 5 25 10 25 6 0 10 -11 10 -25z m-784 0 c7
-18 -3 -65 -15 -65 -15 0 -29 45 -19 63 11 21 27 22 34 2z m-119 -21 c-3 -3
-12 -4 -19 -1 -8 3 -5 6 6 6 11 1 17 -2 13 -5z m-274 -116 c6 -20 -4 -48 -18
-48 -16 0 -26 25 -19 45 7 18 31 20 37 3z m-287 -23 c4 -8 1 -22 -6 -30 -16
-19 -40 -2 -40 26 0 23 38 26 46 4z m1995 -233 c-9 -3 -9 -7 0 -18 9 -11 8
-14 -5 -14 -19 0 -20 13 -4 43 8 17 13 18 16 7 3 -7 0 -16 -7 -18z"/>
<path d="M7210 12540 c-36 -3 -74 -11 -85 -17 -11 -6 -55 -14 -98 -18 -53 -5
-85 -13 -102 -27 -16 -12 -53 -23 -98 -30 -39 -5 -88 -18 -108 -29 -20 -10
-50 -19 -65 -19 -16 -1 -47 -8 -69 -16 -22 -9 -70 -21 -108 -28 -37 -7 -75
-20 -85 -29 -9 -9 -46 -20 -81 -26 -35 -6 -71 -17 -80 -25 -9 -8 -43 -19 -75
-25 -33 -6 -66 -17 -75 -25 -9 -8 -34 -17 -56 -21 -22 -4 -53 -16 -70 -28 -16
-11 -51 -24 -79 -28 -27 -5 -58 -17 -70 -27 -12 -11 -37 -22 -58 -26 -20 -4
-38 -13 -41 -20 -3 -7 -18 -17 -33 -20 -15 -4 -41 -18 -57 -32 -16 -13 -39
-24 -52 -24 -13 0 -36 -11 -52 -24 -15 -13 -39 -27 -53 -31 -14 -4 -36 -16
-49 -26 -13 -11 -29 -19 -36 -19 -6 0 -21 -11 -33 -25 -12 -14 -32 -25 -45
-25 -13 0 -32 -9 -42 -20 -10 -11 -23 -20 -28 -20 -14 0 -175 -78 -181 -88 -2
-4 -39 -26 -82 -48 -42 -21 -94 -56 -115 -76 -22 -21 -43 -38 -49 -38 -5 0
-24 -12 -42 -27 -36 -30 -55 -43 -108 -72 -19 -10 -44 -28 -54 -40 -11 -12
-23 -21 -29 -21 -5 0 -23 -11 -41 -25 -17 -14 -42 -33 -55 -42 -13 -10 -40
-33 -61 -50 -21 -18 -41 -33 -45 -33 -9 0 -62 -49 -203 -187 -58 -57 -108
-103 -112 -103 -4 0 -15 -10 -23 -22 -15 -23 -94 -105 -158 -165 -19 -18 -41
-40 -50 -50 -8 -10 -33 -34 -55 -53 -21 -20 -57 -58 -79 -85 -22 -27 -52 -60
-67 -74 -16 -14 -28 -29 -28 -33 0 -12 -86 -123 -120 -155 -17 -15 -30 -33
-30 -39 0 -6 -16 -28 -36 -50 -19 -21 -42 -56 -51 -76 -8 -21 -23 -40 -32 -43
-10 -3 -25 -20 -35 -38 -71 -134 -104 -190 -118 -198 -9 -5 -19 -22 -23 -38
-3 -16 -13 -35 -20 -41 -8 -6 -19 -28 -26 -48 -6 -20 -18 -44 -25 -53 -8 -8
-19 -31 -25 -50 -7 -19 -23 -47 -36 -62 -12 -16 -23 -35 -23 -42 0 -8 -11 -35
-25 -61 -14 -26 -25 -54 -25 -63 0 -9 -12 -38 -25 -66 -14 -27 -25 -58 -25
-67 0 -9 -9 -23 -19 -30 -11 -8 -23 -27 -27 -43 -3 -17 -14 -43 -24 -60 -10
-16 -20 -45 -24 -64 -3 -19 -13 -43 -22 -52 -9 -10 -20 -39 -25 -64 -5 -26
-18 -58 -29 -72 -11 -14 -20 -35 -20 -47 0 -12 -9 -39 -20 -61 -11 -21 -25
-66 -31 -98 -6 -33 -19 -76 -30 -96 -10 -19 -19 -45 -19 -57 0 -28 -20 -84
-30 -84 -12 0 -30 -58 -30 -94 0 -18 -5 -37 -11 -43 -12 -12 -70 -219 -76
-273 -11 -101 -15 -121 -29 -135 -9 -9 -19 -49 -25 -97 -5 -46 -14 -114 -19
-153 -21 -141 -28 -223 -34 -385 -4 -91 -14 -221 -22 -290 -14 -113 -14 -143
0 -320 9 -107 21 -307 26 -445 6 -137 17 -279 25 -315 7 -36 17 -112 21 -170
4 -67 13 -120 25 -146 10 -23 21 -72 25 -110 3 -38 13 -82 21 -99 7 -16 21
-70 29 -120 9 -49 19 -94 24 -100 4 -5 13 -35 20 -65 6 -30 20 -67 30 -81 10
-14 23 -52 30 -85 7 -32 18 -66 25 -74 7 -8 18 -35 25 -60 7 -25 18 -52 25
-60 7 -8 16 -32 20 -53 4 -20 15 -47 25 -60 9 -12 23 -40 30 -62 7 -22 19 -49
25 -60 7 -11 16 -33 19 -49 4 -17 15 -41 25 -55 10 -14 21 -38 25 -53 3 -15
16 -36 27 -47 11 -10 35 -48 53 -83 18 -35 40 -75 49 -88 9 -14 17 -34 17 -47
0 -12 11 -34 25 -49 14 -15 25 -37 25 -49 0 -11 11 -36 25 -55 14 -19 25 -42
25 -51 0 -10 11 -31 25 -47 14 -17 25 -41 25 -54 0 -14 11 -35 24 -47 14 -13
30 -36 36 -52 7 -16 16 -29 20 -29 5 0 13 -14 19 -31 10 -30 38 -71 78 -115
13 -14 26 -37 30 -51 3 -15 26 -51 50 -81 23 -29 43 -56 43 -60 0 -4 20 -28
44 -54 25 -25 52 -62 60 -81 8 -20 32 -53 53 -74 21 -21 67 -73 103 -116 35
-42 67 -77 71 -77 4 0 12 -14 19 -30 7 -17 19 -30 27 -30 7 0 17 -8 20 -17 4
-10 104 -114 222 -231 268 -265 254 -252 269 -252 7 0 20 -8 30 -18 10 -9 35
-30 57 -47 22 -16 48 -38 60 -50 21 -21 63 -46 107 -65 14 -6 29 -22 32 -35 4
-16 18 -27 41 -35 19 -6 35 -16 35 -21 0 -5 11 -15 25 -21 13 -6 27 -19 30
-29 3 -10 15 -21 26 -24 10 -4 33 -18 49 -32 17 -13 59 -39 95 -57 36 -18 84
-49 108 -69 66 -59 119 -97 132 -97 6 0 20 -9 30 -20 10 -11 27 -22 39 -26 11
-4 34 -17 49 -30 16 -13 35 -24 42 -24 23 0 207 -99 221 -119 8 -10 30 -22 49
-25 20 -4 52 -18 72 -32 20 -13 45 -24 57 -24 12 0 32 -9 46 -20 14 -11 30
-20 36 -20 6 0 21 -11 34 -25 16 -17 39 -27 72 -31 26 -4 57 -15 69 -25 11 -9
39 -21 62 -24 23 -4 49 -13 57 -20 8 -7 40 -20 71 -29 31 -9 62 -22 68 -30 6
-7 30 -17 54 -20 23 -4 53 -14 66 -22 13 -9 55 -20 95 -25 41 -6 82 -18 98
-30 15 -10 43 -19 64 -19 20 0 60 -11 88 -24 28 -13 78 -26 111 -30 33 -4 70
-14 83 -22 14 -9 56 -20 95 -26 39 -5 87 -18 108 -28 20 -11 68 -22 105 -26
38 -3 103 -14 144 -24 209 -51 1319 -51 1405 0 19 11 62 20 115 24 49 4 91 13
100 21 8 7 44 18 80 25 36 6 90 20 120 30 30 11 81 22 113 26 32 4 64 13 71
20 7 7 45 19 83 27 38 8 81 21 94 30 13 8 50 17 82 21 32 3 75 15 95 25 20 10
64 21 96 25 33 4 73 15 90 25 17 11 48 22 68 26 20 4 44 15 54 26 9 10 33 21
53 25 20 4 50 15 67 25 17 11 38 19 46 19 9 0 27 9 41 20 14 11 44 27 67 35
22 8 48 21 56 30 9 8 25 15 37 15 12 0 33 7 47 15 14 8 43 23 65 33 22 11 46
27 54 36 7 9 22 16 32 16 10 0 33 13 51 28 18 15 44 33 58 40 24 12 39 20 89
52 60 38 98 60 121 70 14 7 36 18 50 26 14 7 41 21 60 30 19 9 42 23 50 30 21
20 80 61 110 76 14 7 33 21 42 31 10 9 24 17 32 17 7 0 20 7 27 16 8 9 33 25
56 35 24 10 43 22 43 27 0 11 87 67 118 76 12 4 22 13 22 19 0 12 96 102 127
121 9 4 37 29 63 55 26 25 72 66 103 90 30 24 60 53 66 65 7 12 25 30 42 41
16 11 51 47 76 80 26 33 50 62 54 65 37 26 86 69 99 85 8 11 38 43 66 70 58
57 154 172 154 184 0 5 9 11 19 14 11 3 27 20 36 38 21 46 46 88 68 113 39 44
77 99 77 111 0 6 11 21 25 33 14 12 25 29 25 38 0 17 26 53 73 105 15 16 27
34 27 39 0 5 8 17 19 27 10 10 22 29 26 43 4 14 18 35 31 47 13 12 24 28 24
36 0 8 11 19 25 25 14 7 25 20 25 31 0 11 10 32 23 48 24 31 38 52 63 98 9 17
27 43 40 58 13 16 24 35 24 42 0 8 11 31 25 51 14 20 25 42 25 49 0 6 9 20 20
30 11 10 20 28 20 41 0 12 11 35 24 51 14 16 28 43 32 59 4 16 15 40 26 53 10
13 18 31 18 41 0 10 9 29 21 44 11 14 25 43 31 64 5 20 18 46 28 57 10 11 23
39 29 61 6 23 18 47 25 53 8 7 17 30 21 51 4 22 15 50 24 62 10 13 21 45 24
71 4 27 16 60 26 74 11 13 23 45 26 71 4 26 15 58 25 72 9 14 21 46 25 70 4
25 15 59 25 75 10 17 22 55 25 85 4 30 15 67 25 81 10 14 22 56 28 95 6 38 17
87 26 109 8 22 15 57 16 78 0 21 6 52 13 70 8 18 12 37 10 44 -2 7 1 22 7 34
7 11 18 93 26 182 8 88 19 169 25 179 21 40 31 358 25 802 -7 455 -8 480 -31
551 -7 22 -16 92 -20 155 -4 63 -13 129 -20 145 -21 47 -24 62 -35 183 -6 63
-17 123 -24 135 -8 12 -17 51 -21 87 -3 36 -15 79 -25 95 -10 17 -21 48 -25
70 -4 22 -15 51 -24 65 -9 14 -23 56 -30 94 -6 37 -18 78 -25 90 -8 11 -17 38
-21 60 -3 21 -17 59 -30 85 -48 97 -65 138 -75 184 -6 27 -16 58 -24 70 -7 12
-16 37 -20 56 -3 19 -12 42 -20 50 -7 9 -21 40 -31 69 -9 28 -21 52 -25 52 -5
0 -14 19 -20 43 -6 23 -19 61 -30 85 -11 23 -20 50 -20 60 0 9 -14 37 -30 61
-17 24 -30 49 -30 56 0 7 -8 23 -19 36 -10 13 -21 38 -25 55 -4 18 -16 40 -27
50 -10 9 -19 30 -19 45 0 16 -8 34 -20 42 -11 7 -27 29 -35 48 -9 19 -33 63
-55 99 -21 36 -39 72 -39 80 -1 9 -14 30 -31 48 -16 18 -30 37 -30 42 0 5 -11
20 -25 34 -14 14 -25 32 -25 41 0 15 -73 112 -120 160 -11 12 -20 26 -20 33 0
7 -11 22 -24 33 -13 12 -27 32 -30 44 -3 13 -15 26 -26 30 -10 3 -22 15 -25
26 -4 10 -15 24 -26 29 -10 6 -19 15 -19 21 0 6 -12 24 -27 39 -66 67 -122
128 -155 170 -20 25 -56 66 -80 92 -24 25 -52 58 -63 73 -11 14 -26 31 -33 38
-13 12 -52 51 -120 123 -18 19 -35 34 -38 34 -7 0 -60 41 -94 74 -36 34 -172
136 -182 136 -10 0 -162 121 -234 185 -28 26 -62 54 -76 63 -54 36 -78 55
-115 89 -21 20 -57 45 -79 55 -23 10 -44 24 -47 32 -3 8 -21 17 -39 21 -18 4
-43 18 -55 31 -12 13 -30 24 -40 24 -10 0 -43 18 -73 40 -30 22 -70 46 -87 54
-18 8 -33 19 -33 24 0 6 -17 17 -37 27 -21 9 -72 34 -113 55 -41 22 -83 40
-92 40 -10 0 -23 9 -30 20 -8 12 -36 27 -65 36 -28 8 -57 21 -63 29 -7 8 -20
15 -29 15 -9 0 -35 9 -56 20 -22 12 -59 26 -82 31 -23 6 -49 20 -59 30 -9 10
-24 19 -33 19 -9 0 -38 11 -66 25 -27 13 -66 25 -85 25 -19 0 -57 12 -85 25
-31 15 -68 25 -96 25 -31 0 -55 7 -72 20 -15 12 -55 26 -89 32 -35 6 -73 17
-84 25 -12 7 -55 18 -95 22 -41 5 -88 16 -104 25 -17 8 -73 20 -124 26 -51 6
-105 17 -120 24 -31 16 -84 25 -196 31 -79 4 -181 17 -242 30 -26 6 -34 3 -48
-19 -12 -18 -15 -34 -10 -58 4 -18 8 -60 9 -93 l1 -60 101 -2 c72 -2 116 -8
150 -21 27 -11 67 -22 89 -26 22 -4 49 -13 60 -21 12 -7 69 -18 128 -24 58 -7
125 -20 149 -30 24 -10 79 -22 123 -25 44 -4 100 -13 125 -21 25 -7 79 -19
120 -25 41 -7 83 -19 92 -27 10 -9 38 -19 63 -24 26 -5 57 -17 71 -28 13 -11
47 -22 74 -26 27 -4 61 -15 74 -26 13 -10 33 -19 45 -19 24 0 71 -20 71 -31 0
-4 15 -10 33 -14 17 -4 50 -17 72 -30 22 -12 54 -26 71 -29 17 -4 46 -18 65
-32 18 -13 41 -24 51 -24 10 0 21 -6 24 -14 7 -18 84 -59 144 -77 25 -7 50
-19 55 -26 6 -7 28 -19 50 -26 22 -8 40 -20 40 -28 0 -12 -71 -14 -460 -11
-253 2 -473 7 -490 12 -16 5 -91 14 -165 20 -74 6 -169 15 -210 20 -133 16
-330 28 -525 32 l-190 3 -2 -25 c-2 -14 4 -34 12 -44 13 -17 35 -20 217 -27
336 -14 368 -16 508 -32 74 -8 225 -20 335 -26 110 -6 270 -16 355 -22 228
-16 477 -7 560 20 44 15 76 20 99 16 40 -8 171 -71 171 -83 0 -5 15 -16 33
-25 47 -25 127 -86 178 -136 56 -55 112 -92 169 -111 27 -9 45 -21 45 -30 0
-13 -42 -16 -290 -22 -159 -4 -352 -14 -427 -23 -76 -9 -303 -21 -505 -26
-203 -6 -399 -12 -436 -14 -67 -2 -114 -22 -125 -53 -11 -35 128 -41 457 -18
240 17 718 35 1081 41 140 2 269 8 285 13 40 12 109 -18 155 -68 19 -20 44
-40 56 -44 11 -3 54 -39 95 -79 41 -39 96 -91 122 -114 37 -34 46 -48 42 -65
-8 -33 1 -41 88 -88 21 -12 47 -36 58 -55 12 -19 36 -44 55 -56 19 -11 41 -33
48 -47 8 -15 31 -47 52 -72 22 -25 49 -59 62 -77 21 -31 21 -33 3 -42 -10 -6
-47 -10 -82 -10 -58 1 -385 -15 -534 -26 -33 -2 -305 -7 -605 -11 -468 -6
-547 -9 -562 -22 -46 -40 3 -89 74 -76 24 5 95 9 158 10 412 8 763 16 1160 24
416 8 456 8 465 -7 6 -9 32 -37 58 -63 26 -26 61 -73 77 -105 16 -32 47 -77
69 -99 47 -49 59 -99 25 -104 -12 -2 -37 3 -55 11 -28 11 -137 13 -609 11
-653 -3 -1125 -13 -1155 -24 -12 -5 -37 -2 -60 6 -54 19 -79 17 -98 -4 -24
-27 -21 -44 14 -78 l30 -29 387 3 c213 1 649 4 969 5 538 2 583 4 601 20 22
20 48 14 57 -12 3 -10 17 -23 30 -29 14 -6 25 -20 25 -30 0 -11 8 -30 18 -43
21 -27 72 -132 72 -148 0 -5 10 -18 23 -28 28 -22 42 -76 24 -92 -9 -7 -37 -6
-92 4 -51 8 -85 10 -97 4 -9 -5 -50 -8 -90 -8 -40 1 -203 -1 -363 -4 -430 -9
-457 -9 -1016 -2 -342 4 -524 2 -542 -4 -19 -8 -27 -18 -27 -35 0 -26 23 -56
43 -56 139 -4 2035 2 2114 6 l112 7 30 -31 c21 -20 31 -40 31 -60 0 -18 10
-43 24 -59 13 -16 28 -46 31 -67 4 -20 16 -43 26 -49 20 -13 27 -81 10 -91
-11 -7 -435 -13 -1561 -21 l-855 -7 -14 -28 c-24 -49 19 -116 53 -82 4 4 339
7 744 7 406 1 782 4 837 7 55 3 268 7 474 9 363 3 375 2 384 -17 6 -10 14 -26
19 -34 32 -57 79 -169 84 -202 4 -21 11 -41 15 -44 5 -3 9 -12 9 -19 0 -27
-43 -38 -140 -37 -52 1 -171 -4 -265 -11 -169 -13 -1457 -15 -1605 -3 -133 10
-672 7 -686 -5 -16 -13 -19 -95 -4 -104 10 -6 2510 -8 2635 -1 101 5 121 -8
136 -90 6 -32 16 -68 24 -79 7 -12 17 -50 23 -85 6 -36 13 -72 16 -80 3 -8 -2
-30 -11 -48 l-18 -33 -920 0 c-506 0 -1116 3 -1356 7 -240 4 -448 4 -463 0
-25 -6 -27 -10 -24 -49 l3 -42 75 -1 c41 -1 518 -5 1060 -8 815 -5 993 -4
1031 7 24 8 54 11 64 7 11 -4 26 -2 34 4 14 11 170 15 351 8 47 -2 109 0 137
4 50 6 53 5 63 -20 5 -15 10 -51 10 -79 0 -29 10 -100 22 -159 12 -59 20 -110
16 -113 -3 -4 -489 -8 -1079 -9 -1334 -4 -2335 -13 -2349 -21 -16 -10 -12 -61
6 -76 18 -15 207 -16 925 -3 l357 7 7 -22 c3 -11 3 -25 0 -31 -15 -25 -43
-151 -49 -220 -3 -42 -12 -95 -21 -119 -19 -54 -19 -138 0 -171 18 -31 19
-104 3 -118 -7 -5 -42 -14 -77 -21 -38 -6 -73 -19 -86 -31 -12 -11 -27 -20
-34 -20 -7 0 -32 -18 -54 -41 l-40 -40 10 -100 c6 -65 15 -104 24 -112 8 -6
28 -31 44 -55 15 -24 43 -56 62 -72 31 -28 39 -30 112 -30 86 0 95 4 165 77
54 56 74 88 91 147 20 69 14 109 -38 251 -10 26 -17 92 -19 191 -4 120 -8 155
-21 175 -14 19 -17 49 -17 161 0 162 -17 146 165 152 66 2 188 11 270 19 198
21 1633 26 1645 6 5 -6 11 -65 15 -131 6 -96 11 -123 27 -143 24 -31 19 -49
-19 -67 -22 -11 -77 -13 -268 -8 -132 4 -420 5 -640 4 -609 -5 -912 -4 -1001
2 -96 7 -112 -6 -66 -56 24 -28 36 -32 116 -41 50 -5 95 -8 102 -5 6 2 110 6
229 7 205 2 219 1 232 -17 10 -13 12 -29 7 -49 -4 -16 -8 -75 -9 -130 -1 -55
-3 -143 -5 -195 -2 -52 -2 -168 0 -257 4 -178 -1 -198 -49 -189 -14 3 -51 2
-82 -2 -62 -9 -116 -49 -145 -106 -23 -47 -29 -129 -11 -162 8 -16 21 -49 28
-73 7 -24 23 -50 36 -58 13 -9 23 -19 23 -23 0 -15 58 -70 84 -79 14 -6 28
-21 32 -36 3 -14 13 -25 20 -25 8 0 27 -8 41 -17 25 -17 72 -18 615 -18 516 0
588 -2 589 -15 3 -34 -4 -64 -22 -103 -10 -23 -19 -56 -19 -72 0 -27 -47 -176
-64 -204 -5 -8 -18 -4 -39 11 l-32 23 -910 0 c-500 0 -1004 -1 -1120 -2 -115
-1 -223 -1 -240 0 -30 2 -30 1 -33 -54 -4 -84 -3 -84 185 -66 246 25 409 28
1287 29 671 0 820 -3 828 -14 5 -7 6 -31 3 -53 -3 -22 -10 -68 -14 -103 -5
-35 -16 -71 -25 -81 -9 -10 -20 -39 -25 -64 -11 -63 -24 -76 -69 -71 -20 2
-422 6 -892 8 -470 2 -867 6 -882 9 -15 3 -60 0 -99 -6 -53 -8 -75 -8 -90 1
-10 7 -25 12 -32 12 -38 0 -73 -94 -46 -126 10 -13 24 -14 68 -9 31 4 477 7
991 6 731 -1 937 -4 946 -14 13 -13 2 -57 -15 -57 -12 0 -31 -63 -31 -101 0
-39 -44 -130 -78 -163 -25 -23 -36 -27 -59 -22 -15 3 -404 6 -863 7 l-835 0
-9 -35 c-7 -25 -6 -44 3 -62 10 -22 16 -25 39 -20 68 17 355 24 787 19 433 -5
700 3 772 23 16 4 30 -2 49 -21 l28 -28 -31 -27 c-16 -15 -35 -42 -42 -60 -6
-18 -20 -39 -30 -46 -10 -8 -22 -30 -26 -51 -9 -52 -45 -105 -88 -128 -30 -16
-42 -17 -69 -8 -22 7 -66 8 -128 4 -52 -4 -264 -7 -470 -5 -368 2 -500 -3
-755 -32 -122 -13 -532 -16 -605 -4 -41 7 -109 18 -150 24 -41 7 -88 19 -105
28 -16 8 -48 19 -70 23 -22 3 -58 18 -81 31 -22 13 -53 24 -68 24 -15 0 -44 9
-65 19 -20 11 -66 23 -102 27 -35 4 -86 15 -112 25 -63 25 -331 28 -376 4 -16
-8 -59 -19 -96 -25 -37 -6 -76 -17 -88 -25 -12 -8 -41 -17 -65 -21 -24 -4 -48
-15 -55 -25 -8 -10 -33 -27 -58 -38 -39 -19 -191 -118 -259 -169 -14 -11 -39
-22 -56 -26 -17 -4 -41 -18 -53 -31 -11 -14 -27 -25 -35 -25 -25 0 -40 -31
-37 -75 2 -39 0 -43 -28 -53 -16 -6 -40 -22 -52 -36 -13 -14 -28 -26 -35 -26
-7 0 -27 -18 -44 -40 -18 -23 -46 -47 -64 -56 -17 -8 -53 -27 -81 -41 -27 -15
-70 -28 -95 -29 -25 -2 -65 -6 -90 -9 -65 -8 -86 -7 -175 5 -44 6 -141 14
-215 19 -87 6 -149 15 -175 26 -22 10 -69 21 -104 26 -36 5 -72 16 -80 23 -9
8 -42 17 -74 21 -32 4 -68 16 -82 27 -14 10 -46 23 -73 27 -28 4 -57 16 -70
29 -12 12 -35 22 -51 22 -15 0 -40 9 -53 20 -14 10 -44 24 -67 29 -23 5 -51
17 -60 25 -10 9 -40 20 -67 25 -27 4 -67 17 -89 29 -41 21 -106 27 -267 23
-56 -1 -72 -5 -90 -23 -14 -14 -41 -24 -77 -29 -34 -5 -60 -15 -68 -25 -8 -11
-35 -20 -73 -26 -33 -4 -74 -15 -91 -24 -17 -8 -57 -20 -90 -25 -33 -5 -76
-18 -97 -28 -23 -12 -70 -21 -123 -25 -48 -3 -122 -13 -165 -22 -67 -14 -121
-16 -349 -11 -148 4 -323 11 -388 18 -77 7 -225 9 -420 5 -367 -7 -380 -8
-487 -34 -90 -21 -114 -18 -125 17 -3 11 -12 22 -20 25 -8 3 -15 11 -15 17 0
25 -64 145 -93 176 -27 29 -29 36 -21 65 10 32 11 33 59 31 28 -1 142 -4 255
-6 113 -2 291 -9 395 -15 105 -7 232 -14 284 -17 52 -3 100 -10 108 -16 12
-10 147 -21 437 -34 85 -4 114 -9 129 -22 17 -16 42 -18 217 -18 185 0 201 2
227 21 17 12 51 23 84 27 31 3 76 14 100 25 24 11 62 24 84 28 22 4 56 15 75
25 19 11 46 19 60 19 15 0 41 11 59 24 18 13 49 27 69 31 20 4 52 16 71 27 30
19 49 21 168 21 121 0 136 -2 156 -21 12 -11 41 -25 65 -30 24 -6 51 -17 61
-26 10 -9 21 -16 26 -16 14 0 173 -79 179 -89 4 -5 21 -13 38 -16 18 -4 44
-16 58 -26 14 -10 54 -25 90 -33 36 -8 83 -21 105 -30 22 -8 60 -15 85 -16 25
0 56 -7 68 -16 12 -8 53 -20 90 -25 37 -6 96 -19 132 -30 44 -14 97 -20 165
-21 150 -2 178 15 111 66 -19 14 -38 26 -41 26 -4 0 -25 13 -48 29 -54 36 -99
56 -162 71 -27 6 -60 18 -73 26 -13 9 -50 20 -84 25 -33 5 -70 16 -83 25 -12
8 -46 17 -74 21 -30 3 -64 15 -83 29 -18 14 -46 24 -64 24 -17 0 -42 8 -55 19
-13 10 -40 22 -59 26 -19 4 -48 15 -65 25 -16 10 -44 21 -62 25 -17 3 -43 17
-58 31 -14 13 -37 24 -50 24 -13 0 -31 7 -40 16 -8 9 -38 22 -66 29 -28 8 -59
21 -68 30 -48 43 -375 41 -437 -2 -17 -12 -53 -24 -86 -27 -31 -3 -80 -15
-110 -25 -29 -11 -74 -23 -100 -26 -25 -3 -55 -14 -67 -24 -13 -11 -45 -21
-83 -25 -42 -4 -67 -12 -75 -23 -7 -9 -36 -20 -65 -25 -29 -5 -75 -12 -103
-17 -27 -4 -63 -14 -80 -21 -39 -16 -463 -5 -580 15 -44 8 -141 17 -215 20
-74 4 -157 9 -185 12 -106 11 -443 13 -745 5 l-315 -9 -32 31 c-24 22 -33 40
-33 63 0 20 -8 41 -20 53 -13 13 -20 33 -20 60 0 33 -7 47 -35 75 -30 31 -33
38 -24 63 l9 27 608 -4 c1013 -8 1001 -8 1012 9 14 21 12 73 -2 92 -11 14 -22
15 -68 8 -30 -5 -392 -11 -805 -14 -412 -4 -776 -9 -807 -12 -53 -5 -59 -4
-82 21 -14 15 -28 44 -31 64 -3 20 -10 43 -14 51 -5 8 -14 55 -21 103 -12 76
-11 90 1 98 8 5 147 9 309 9 288 0 462 8 685 30 61 6 299 13 529 16 251 2 424
8 429 13 7 7 7 22 1 43 l-10 33 -469 1 c-259 0 -598 -5 -755 -12 -157 -6 -386
-15 -510 -18 -124 -3 -241 -8 -261 -12 -26 -4 -39 -2 -45 7 -19 31 -51 139
-58 193 -3 31 -13 67 -21 79 -22 34 -31 106 -14 111 18 6 998 16 1686 17 l542
0 11 34 c8 25 8 40 0 56 -10 18 -18 20 -53 15 -23 -4 -409 -8 -857 -11 -1034
-5 -1294 -11 -1336 -32 -38 -20 -79 -11 -96 20 -7 12 -15 56 -19 97 -4 41 -15
113 -25 158 -18 81 -18 84 -1 97 16 11 226 14 1190 14 l1172 1 3 36 c2 20 -1
41 -6 46 -10 10 -1289 10 -1967 -1 -339 -5 -433 -4 -444 6 -9 7 -17 38 -19 75
-3 35 -10 72 -17 83 -7 11 -16 61 -20 110 -6 82 -5 92 13 108 24 22 84 25 634
28 218 1 402 5 408 9 15 9 8 45 -13 74 -14 19 -30 20 -493 18 -264 -2 -493 -5
-509 -8 -17 -3 -43 0 -59 5 -25 10 -28 15 -24 49 3 20 1 95 -3 165 -4 71 -5
135 -3 142 3 7 19 19 36 26 25 10 38 10 76 -4 41 -15 106 -17 525 -16 506 1
507 1 567 48 14 11 21 23 17 28 -5 4 -210 11 -455 15 -246 4 -505 12 -577 17
-83 7 -133 7 -139 1 -17 -17 -46 -11 -54 13 -6 16 -8 310 -3 359 1 4 47 6 104
3 394 -18 1164 -21 1331 -5 64 7 103 7 109 1 6 -6 12 -96 14 -200 3 -174 2
-191 -14 -199 -26 -14 -173 -42 -217 -42 -34 0 -39 -3 -56 -42 -10 -24 -22
-61 -26 -82 -4 -22 -16 -55 -27 -73 -28 -49 -20 -178 16 -246 27 -51 96 -106
133 -107 11 0 29 -10 40 -21 17 -19 27 -21 85 -17 39 3 76 12 90 22 13 9 31
16 39 16 9 0 40 30 70 68 l55 67 0 115 c0 70 -5 129 -13 150 -23 59 -40 132
-47 200 -4 36 -11 84 -16 107 -5 23 -13 93 -19 155 -12 143 -11 144 91 129 50
-7 351 -8 927 -3 930 8 871 3 872 63 0 40 -21 53 -67 39 -26 -8 -300 -13 -903
-17 -476 -3 -882 -6 -903 -6 -49 -1 -68 19 -72 77 -1 26 -7 52 -13 58 -21 21
-32 -4 -32 -71 0 -78 -9 -92 -53 -81 -18 4 -167 11 -332 15 -165 3 -446 10
-625 14 -417 9 -474 8 -492 -7 -17 -14 -47 -6 -49 12 -6 49 5 345 13 359 8 17
18 18 76 12 147 -14 1052 -18 2436 -10 478 3 872 8 875 11 11 11 -16 37 -62
62 -35 18 -65 25 -117 26 -55 2 -73 6 -83 21 -12 15 -24 17 -88 13 -41 -3 -90
-12 -109 -21 -72 -34 -2573 -30 -2735 5 -27 5 -70 11 -95 12 -25 1 -55 8 -67
14 -25 14 -31 50 -12 69 6 6 13 51 16 100 6 121 8 127 45 144 25 11 52 13 113
8 111 -10 1401 -9 1476 0 4 1 9 7 12 15 4 9 -7 22 -28 35 -33 19 -56 20 -487
26 -249 3 -559 8 -688 12 -129 4 -268 6 -307 4 -71 -2 -73 -2 -83 25 -13 33
-5 74 26 136 16 32 24 64 24 101 0 43 5 61 28 91 l28 38 495 4 c748 5 929 18
944 65 4 10 3 23 0 29 -4 7 -123 10 -338 9 -218 0 -344 4 -367 11 -44 14 -594
14 -620 0 -10 -6 -30 -10 -44 -10 -19 0 -26 6 -31 29 -9 41 3 97 26 117 10 9
21 33 25 53 3 20 14 47 23 61 9 14 21 43 26 65 17 61 33 66 230 60 94 -2 437
-7 762 -10 557 -6 594 -5 623 11 38 23 38 35 -2 59 -32 19 -57 20 -698 22
-366 2 -672 3 -680 4 -8 0 -46 -5 -85 -11 -38 -6 -75 -8 -82 -6 -7 3 -13 21
-13 40 0 24 6 38 24 49 15 10 25 29 30 55 3 22 12 42 20 45 7 3 15 25 18 49 3
23 18 65 34 91 l29 49 740 -2 c569 0 741 -3 747 -13 5 -7 5 -37 1 -67 -17
-117 7 -558 32 -597 19 -29 19 -77 0 -93 -8 -7 -34 -12 -57 -12 -75 2 -155
-15 -177 -37 -12 -12 -34 -21 -51 -21 -25 0 -35 -8 -60 -47 -26 -43 -30 -57
-30 -129 0 -125 28 -178 160 -298 35 -31 62 -38 131 -31 53 5 77 13 102 34 40
32 97 95 97 108 0 5 11 20 25 33 14 13 28 39 31 59 4 20 16 56 27 81 16 36 18
58 14 111 -3 37 -10 75 -16 86 -5 10 -17 61 -26 113 -9 52 -23 102 -30 110 -7
8 -16 40 -20 70 -4 30 -14 69 -22 85 -49 100 -78 326 -49 384 9 17 20 31 24
32 4 0 54 2 112 4 58 2 177 7 265 11 175 7 225 7 269 -2 36 -8 46 7 46 66 0
64 -9 73 -61 66 -24 -4 -170 -8 -324 -10 -160 -2 -291 -8 -306 -14 -18 -7 -60
-8 -125 -2 -271 24 -1304 32 -1368 10 -29 -9 -40 -9 -51 0 -23 19 -18 58 10
82 20 17 25 31 25 65 0 32 5 45 18 50 22 8 32 23 32 50 0 12 10 30 23 40 12
10 29 28 37 39 9 12 35 38 59 59 35 29 50 35 70 30 141 -34 165 -35 1056 -35
484 1 893 -1 909 -2 18 -2 32 3 39 13 15 24 1 66 -25 72 -13 3 -162 8 -333 12
-170 3 -492 9 -715 13 -223 4 -517 7 -655 7 -155 0 -253 4 -257 10 -13 18 -9
41 15 77 13 19 27 47 31 63 8 33 63 115 77 115 5 0 14 11 19 25 5 14 26 47 47
75 32 42 42 50 71 50 18 0 45 -9 60 -20 25 -19 53 -20 472 -30 245 -6 495 -15
555 -20 61 -5 173 -12 250 -15 77 -2 208 -7 291 -10 84 -3 164 -3 178 1 15 3
33 19 41 35 19 36 19 46 -2 53 -10 3 -234 8 -498 10 -264 3 -493 7 -510 10
-74 11 -380 27 -569 30 -173 3 -210 6 -223 19 -15 14 -13 19 15 52 18 20 32
39 32 44 0 17 282 293 310 303 21 7 30 17 30 31 0 27 10 42 33 50 9 4 20 14
24 23 3 9 17 27 29 40 13 12 24 28 24 34 0 5 5 10 11 10 6 0 25 15 42 33 18
17 66 61 106 97 41 36 88 77 104 93 17 15 35 27 41 27 6 0 23 12 37 28 23 24
77 71 104 90 6 4 28 21 50 37 105 80 219 150 305 190 19 8 42 20 50 25 8 6 26
15 40 21 112 48 190 102 190 130 0 6 19 19 43 29 23 11 62 35 87 54 25 19 49
35 54 35 5 1 23 12 40 25 17 13 42 27 56 31 14 4 39 15 55 25 17 10 53 21 82
25 31 4 58 14 69 26 9 10 22 19 29 19 7 0 32 11 57 24 25 13 60 27 79 31 19 4
52 15 74 24 22 10 64 23 93 30 29 6 60 17 68 25 7 8 37 19 66 26 29 6 62 17
74 25 12 7 59 19 105 25 45 6 94 17 108 24 14 7 54 16 88 19 38 3 76 13 96 26
19 12 50 21 68 21 31 0 163 36 279 77 25 9 72 18 105 20 73 6 85 15 85 62 1
20 7 54 15 76 21 56 19 92 -4 105 -21 11 -31 11 -131 0z m-367 -215 c2 -12
-38 -19 -61 -10 -14 5 -14 7 -2 16 18 11 60 8 63 -6z m-843 -289 c0 -9 -40
-13 -46 -5 -3 5 6 9 20 9 14 0 26 -2 26 -4z m4326 -64 c-9 -9 -37 8 -31 18 5
8 11 7 21 -1 8 -6 12 -14 10 -17z m-4596 -32 c12 -8 9 -10 -13 -10 -16 0 -26
4 -22 10 8 12 16 12 35 0z m-110 -46 c0 -8 -7 -14 -15 -14 -15 0 -21 21 -9 33
10 9 24 -2 24 -19z m-140 -64 c0 -5 -7 -10 -16 -10 -8 0 -12 5 -9 10 3 6 10
10 16 10 5 0 9 -4 9 -10z m5170 0 c0 -5 -7 -10 -15 -10 -8 0 -15 5 -15 10 0 6
7 10 15 10 8 0 15 -4 15 -10z m-5327 -105 c-6 -17 -25 -15 -31 3 -2 7 5 12 17
12 14 0 19 -5 14 -15z m-443 -255 c0 -5 -4 -10 -10 -10 -5 0 -10 5 -10 10 0 6
5 10 10 10 6 0 10 -4 10 -10z m6773 -355 c3 -20 1 -25 -12 -23 -9 2 -17 13
-19 26 -5 31 24 29 31 -3z m-7283 -36 c0 -11 -4 -17 -10 -14 -5 3 -10 13 -10
21 0 8 5 14 10 14 6 0 10 -9 10 -21z m-257 -246 c-7 -2 -21 -2 -30 0 -10 3 -4
5 12 5 17 0 24 -2 18 -5z m-93 -83 c0 -5 -4 -10 -10 -10 -5 0 -10 5 -10 10 0
6 5 10 10 10 6 0 10 -4 10 -10z m8270 -300 c0 -5 -7 -7 -15 -4 -8 4 -12 10 -9
15 6 11 24 2 24 -11z m105 -110 c3 -5 -1 -10 -10 -10 -9 0 -13 5 -10 10 3 6 8
10 10 10 2 0 7 -4 10 -10z m55 -94 c0 -16 -19 -25 -37 -19 -19 7 -16 21 5 26
29 8 32 7 32 -7z m80 -61 c0 -8 -4 -15 -10 -15 -5 0 -10 7 -10 15 0 8 5 15 10
15 6 0 10 -7 10 -15z m100 -186 c0 -11 -4 -17 -10 -14 -5 3 -10 13 -10 21 0 8
5 14 10 14 6 0 10 -9 10 -21z m120 -259 c0 -5 -6 -10 -14 -10 -8 0 -18 5 -21
10 -3 6 3 10 14 10 12 0 21 -4 21 -10z m180 -201 c0 -5 -4 -9 -10 -9 -5 0 -10
7 -10 16 0 8 5 12 10 9 6 -3 10 -10 10 -16z m194 -400 c-6 -10 -54 -12 -54 -3
0 4 8 13 17 20 19 13 48 0 37 -17z m56 -95 c0 -8 -4 -14 -10 -14 -5 0 -10 9
-10 21 0 11 5 17 10 14 6 -3 10 -13 10 -21z m-43 -200 c-3 -3 -12 -4 -19 -1
-8 3 -5 6 6 6 11 1 17 -2 13 -5z m-10457 -554 c0 -5 -2 -10 -4 -10 -3 0 -8 5
-11 10 -3 6 -1 10 4 10 6 0 11 -4 11 -10z m1750 -45 c0 -8 -4 -15 -9 -15 -13
0 -22 16 -14 24 11 11 23 6 23 -9z m8883 -1399 c93 -8 172 -18 177 -22 4 -5
10 -71 13 -147 7 -170 3 -178 -90 -171 -215 15 -960 7 -1079 -11 -63 -10 -66
-1 -54 160 6 75 15 146 21 156 8 15 21 19 61 19 29 0 88 5 132 10 45 6 113 14
151 18 101 10 473 3 668 -12z m264 -408 c-3 -8 -6 -5 -6 6 -1 11 2 17 5 13 3
-3 4 -12 1 -19z m-497 -30 c63 -6 174 -12 247 -14 72 -1 140 -7 150 -12 16 -9
18 -24 16 -162 -1 -123 -4 -155 -17 -168 -13 -14 -80 -16 -532 -19 -285 -2
-521 -6 -526 -9 -17 -11 -7 -43 22 -67 l30 -26 462 3 c263 1 475 -2 491 -7 31
-10 33 -27 13 -89 -20 -61 -36 -165 -36 -232 0 -49 -3 -58 -22 -66 -34 -13
-496 -32 -613 -24 -57 4 -130 2 -170 -4 -45 -7 -97 -8 -147 -2 -61 7 -89 6
-129 -6 -115 -34 -179 -35 -179 -2 0 5 33 42 73 82 40 40 79 87 87 105 7 17
19 35 27 40 20 11 33 128 23 199 -4 32 -18 74 -30 95 -18 31 -24 60 -30 175
-5 75 -14 152 -21 171 -10 29 -10 36 3 45 20 15 650 10 808 -6z m-10510 -468
c0 -5 -2 -10 -4 -10 -3 0 -8 5 -11 10 -3 6 -1 10 4 10 6 0 11 -4 11 -10z
m10911 -485 c-1 -15 -24 -12 -29 3 -3 9 2 13 12 10 10 -1 17 -7 17 -13z
m-10841 -299 c0 -8 -4 -18 -10 -21 -5 -3 -10 3 -10 14 0 12 5 21 10 21 6 0 10
-6 10 -14z m10637 -248 c-3 -7 -5 -2 -5 12 0 14 2 19 5 13 2 -7 2 -19 0 -25z
m-7056 -1183 c0 -5 -9 -11 -21 -13 -15 -3 -18 1 -14 13 7 17 35 17 35 0z
m3431 -69 c93 -10 136 -19 160 -34 19 -12 54 -24 78 -28 25 -3 57 -15 73 -25
15 -11 51 -23 80 -26 28 -4 63 -14 77 -24 14 -9 47 -20 75 -24 27 -4 61 -13
75 -20 33 -16 202 -33 310 -31 47 2 117 11 155 20 39 10 147 24 240 32 94 7
184 18 200 23 17 6 91 13 165 16 74 3 160 7 190 10 243 21 884 14 917 -10 16
-12 16 -14 -2 -41 -11 -16 -27 -46 -37 -66 -9 -21 -21 -38 -25 -38 -5 0 -26
-23 -48 -50 -22 -28 -50 -53 -63 -56 -12 -4 -26 -14 -31 -23 -10 -17 -17 -17
-281 -9 -58 1 -204 -2 -325 -7 -255 -12 -869 -13 -1063 -3 -80 4 -145 13 -165
22 -17 8 -67 19 -110 24 -44 6 -86 17 -96 26 -9 8 -41 20 -70 27 -30 6 -72 20
-95 30 -23 10 -51 19 -62 19 -12 0 -32 9 -46 19 -14 11 -49 23 -79 26 -30 4
-67 16 -84 28 -28 20 -43 22 -190 22 -146 0 -163 -2 -195 -21 -19 -12 -56 -25
-82 -28 -26 -4 -58 -16 -71 -27 -14 -10 -34 -19 -44 -19 -11 0 -34 -11 -53
-25 -19 -14 -42 -25 -51 -25 -10 0 -24 -9 -32 -20 -8 -11 -28 -25 -46 -31 -17
-6 -36 -20 -42 -30 -5 -10 -18 -19 -27 -19 -10 0 -33 -11 -52 -25 -19 -14 -39
-25 -45 -25 -6 0 -21 -11 -33 -25 -12 -14 -27 -25 -33 -25 -19 0 -190 -101
-196 -116 -11 -30 -107 -46 -248 -42 -74 2 -135 6 -135 11 0 19 42 46 91 57
81 18 168 65 206 110 19 22 41 40 48 40 7 0 33 16 57 37 23 20 62 44 84 54 23
11 47 25 53 33 7 8 24 17 38 21 15 3 40 17 56 31 16 13 39 24 51 24 13 0 31 9
40 19 10 11 31 23 47 26 16 4 34 15 39 26 6 10 16 19 23 19 7 0 57 23 111 50
55 28 108 50 119 50 21 0 55 17 74 36 7 7 35 16 61 19 26 3 63 10 82 15 47 11
39 11 182 -4z m2995 -82 c6 -16 -12 -34 -34 -34 -14 0 -18 32 -6 43 12 12 34
7 40 -9z m-120 -16 c-3 -8 -6 -5 -6 6 -1 11 2 17 5 13 3 -3 4 -12 1 -19z
m-6911 3 c-7 -11 -56 -21 -56 -11 0 13 13 20 37 20 13 0 22 -4 19 -9z m-2051
-201 c-6 -9 -9 -9 -16 1 -10 17 0 34 13 21 6 -6 7 -16 3 -22z m3051 -94 c11
-8 38 -18 60 -21 21 -4 53 -16 69 -25 17 -10 48 -22 70 -25 22 -4 47 -15 56
-25 10 -9 40 -20 67 -23 28 -3 68 -15 89 -25 21 -11 58 -23 83 -27 25 -4 58
-14 74 -22 16 -8 55 -19 87 -23 32 -5 74 -16 91 -25 18 -9 83 -23 143 -31 61
-8 135 -19 165 -24 76 -15 312 -29 389 -25 49 4 70 10 88 27 22 21 24 21 37 3
12 -17 26 -19 122 -17 96 1 206 -9 257 -24 41 -13 -7 -69 -67 -78 -123 -18
-184 -30 -206 -41 -14 -7 -63 -20 -110 -30 -47 -9 -103 -21 -125 -25 -64 -14
-253 -12 -314 4 -31 8 -103 19 -161 26 -58 6 -118 18 -135 27 -16 8 -59 19
-93 23 -40 5 -72 16 -85 28 -12 11 -39 23 -60 26 -21 4 -53 16 -70 27 -18 10
-45 19 -60 19 -16 0 -41 8 -55 18 -32 22 -147 78 -182 88 -13 4 -36 15 -50 25
-14 9 -47 20 -75 24 -27 4 -58 14 -68 23 -23 20 -126 18 -167 -3 -17 -9 -60
-19 -98 -24 -82 -11 -241 -58 -264 -79 -10 -8 -41 -19 -69 -23 -28 -5 -59 -15
-69 -24 -9 -8 -43 -20 -76 -26 -32 -7 -66 -18 -74 -25 -8 -7 -44 -18 -80 -24
-36 -7 -89 -19 -119 -27 -42 -11 -122 -14 -370 -13 -174 1 -345 6 -381 11 -67
8 -348 18 -605 20 -81 1 -161 5 -178 10 -39 11 -106 84 -111 124 -3 16 -7 44
-9 60 -2 17 -6 37 -8 45 -4 13 57 15 491 18 468 2 558 -1 865 -29 186 -18 355
-21 452 -10 53 6 101 15 107 20 6 5 29 11 51 15 108 17 137 24 148 38 6 9 34
18 61 22 27 3 61 13 75 22 13 9 74 25 134 35 61 11 113 21 115 24 12 12 129 4
148 -9z m3045 -16 c46 -6 102 -20 124 -30 22 -10 60 -22 85 -26 25 -4 54 -14
65 -24 11 -10 44 -20 73 -24 29 -4 81 -16 115 -26 129 -41 407 -55 662 -33 77
7 304 15 505 19 201 3 379 8 395 10 207 25 465 29 472 7 2 -6 -5 -14 -16 -18
-10 -3 -24 -20 -30 -36 -6 -17 -19 -33 -30 -36 -12 -3 -23 -17 -27 -37 -4 -17
-15 -42 -26 -56 -10 -14 -29 -41 -41 -60 -29 -45 -51 -49 -311 -55 -116 -3
-265 -8 -331 -11 -66 -3 -163 -1 -215 5 -52 6 -228 16 -392 21 -209 7 -309 14
-340 24 -23 8 -72 20 -108 26 -36 7 -87 20 -115 30 -27 10 -64 22 -82 25 -17
3 -37 13 -43 20 -7 8 -28 17 -49 21 -20 4 -54 17 -76 29 -22 13 -58 26 -79 30
-21 3 -50 14 -64 23 -53 34 -373 34 -426 -1 -12 -8 -36 -18 -54 -22 -18 -4
-43 -17 -55 -30 -12 -12 -37 -25 -55 -29 -19 -3 -45 -15 -59 -26 -14 -11 -36
-20 -48 -20 -12 0 -30 -9 -40 -20 -10 -11 -33 -23 -52 -26 -19 -4 -46 -17 -61
-29 -15 -12 -44 -25 -64 -29 -22 -4 -42 -15 -48 -26 -6 -11 -17 -20 -24 -20
-7 0 -25 -9 -39 -20 -14 -11 -32 -20 -41 -20 -9 0 -32 -16 -52 -35 -19 -19
-39 -35 -44 -35 -9 0 -65 -38 -100 -67 -47 -39 -80 -63 -119 -84 -24 -13 -54
-30 -67 -37 -47 -26 -29 -40 49 -40 58 0 80 5 115 25 24 13 55 27 70 29 15 3
41 11 57 18 17 8 53 17 80 21 28 4 59 15 71 26 11 10 41 23 66 27 25 5 58 19
73 31 15 11 38 21 50 21 12 0 32 8 44 19 11 10 39 21 61 25 24 4 43 14 50 25
5 11 23 22 39 26 17 3 40 14 53 24 13 10 34 22 48 26 13 4 36 16 50 26 14 10
57 22 97 28 40 5 82 16 95 25 29 20 51 20 91 -1 18 -9 71 -20 119 -24 59 -5
98 -13 120 -27 18 -11 51 -23 72 -27 22 -3 51 -15 64 -26 14 -10 38 -19 53
-19 16 0 38 -9 49 -20 13 -13 44 -23 92 -30 40 -6 94 -20 120 -31 40 -16 71
-19 220 -19 95 0 214 5 263 10 87 9 664 13 813 6 58 -3 78 -8 94 -24 19 -19
20 -24 8 -54 -21 -51 -52 -88 -80 -95 -14 -3 -37 -15 -51 -26 -15 -10 -49 -22
-75 -24 -27 -3 -56 -11 -64 -18 -33 -26 -182 -38 -436 -33 -213 4 -254 7 -284
22 -21 10 -84 23 -155 31 -66 7 -140 20 -164 29 -24 9 -62 16 -85 16 -23 0
-60 9 -81 20 -22 11 -69 25 -105 31 -36 5 -75 17 -88 25 -12 8 -48 20 -80 25
-31 6 -69 17 -84 25 -14 7 -71 21 -126 29 -55 8 -113 20 -128 26 -48 18 -144
13 -188 -10 -22 -12 -56 -24 -75 -27 -20 -4 -43 -12 -51 -19 -8 -8 -32 -16
-53 -20 -20 -4 -47 -15 -60 -25 -12 -9 -38 -21 -57 -25 -19 -4 -53 -15 -75
-25 -110 -50 -153 -68 -185 -80 -19 -7 -54 -21 -78 -31 -23 -11 -71 -22 -105
-26 -34 -3 -72 -13 -85 -21 -12 -8 -63 -19 -113 -23 -50 -5 -123 -15 -162 -23
-63 -13 -80 -13 -132 -1 -34 8 -113 15 -180 15 -234 1 -429 17 -471 38 -22 11
-68 23 -103 27 -39 4 -74 14 -88 25 -13 10 -43 21 -66 25 -23 4 -55 15 -72 25
-16 9 -47 20 -67 23 -20 3 -46 15 -57 26 -12 12 -34 21 -51 21 -20 0 -39 9
-54 25 -13 14 -37 28 -54 31 -18 4 -37 13 -43 20 -6 8 -30 19 -53 25 -22 6
-49 18 -58 26 -10 9 -39 19 -65 24 -26 5 -56 18 -68 29 -30 28 -126 29 -146 1
-16 -23 -147 -81 -181 -81 -13 0 -39 -8 -58 -19 -19 -10 -63 -22 -97 -26 -37
-4 -73 -15 -87 -26 -15 -12 -53 -23 -100 -29 -42 -5 -87 -16 -100 -25 -13 -9
-63 -20 -112 -26 -49 -6 -98 -15 -109 -19 -42 -18 -143 -23 -504 -22 -206 0
-386 -3 -400 -8 -51 -14 -172 6 -232 39 -60 33 -79 61 -79 116 0 93 36 111
220 108 287 -4 488 -14 570 -28 199 -34 471 -39 530 -10 14 7 59 20 100 29 41
10 82 24 91 32 16 15 155 57 239 74 25 5 59 16 77 25 18 9 55 20 83 24 27 4
58 16 69 25 10 9 44 21 76 26 32 5 62 15 66 21 5 9 18 8 48 -5 23 -9 57 -16
75 -16 21 0 45 -9 63 -23 15 -13 43 -27 61 -30 19 -4 44 -15 58 -26 13 -10 41
-22 61 -26 20 -4 48 -15 61 -26 14 -10 31 -19 38 -19 7 0 18 -9 24 -20 6 -10
27 -24 48 -29 20 -6 54 -19 75 -30 21 -11 57 -23 80 -26 23 -4 49 -14 58 -21
9 -8 42 -19 74 -24 32 -5 69 -17 84 -27 23 -16 51 -18 226 -18 168 0 207 3
243 18 23 9 89 21 146 26 62 5 113 15 127 24 13 9 42 19 64 23 22 4 57 15 77
25 21 11 46 19 57 19 11 0 33 11 49 25 17 14 34 25 39 25 26 0 125 77 167 129
41 51 55 61 96 71 27 7 55 19 62 27 7 9 31 24 53 35 59 28 104 54 123 71 9 8
39 20 66 26 27 7 58 19 70 27 11 7 33 14 47 14 15 0 40 11 56 24 16 13 48 29
71 35 23 7 42 16 42 20 0 33 180 49 331 31z m-5982 -74 c-13 -15 -19 -3 -12
24 6 22 7 22 14 4 3 -10 3 -23 -2 -28z m8561 -115 c0 -6 -4 -13 -10 -16 -5 -3
-10 1 -10 9 0 9 5 16 10 16 6 0 10 -4 10 -9z m-4169 -31 c4 0 6 -7 3 -15 -5
-12 -27 -15 -109 -15 -104 0 -135 5 -135 21 0 8 188 18 218 12 8 -2 18 -3 23
-3z m-1646 -60 c-3 -5 -13 -10 -21 -10 -8 0 -14 5 -14 10 0 6 9 10 21 10 11 0
17 -4 14 -10z m-2499 -68 c-17 -17 -36 -8 -36 18 0 25 22 32 38 12 10 -13 10
-19 -2 -30z m2239 -32 c-3 -5 -18 -10 -33 -10 -21 0 -24 2 -12 10 20 13 53 13
45 0z m-605 -150 c0 -5 -9 -10 -20 -10 -11 0 -20 5 -20 10 0 6 9 10 20 10 11
0 20 -4 20 -10z m6360 -50 c0 -5 -10 -10 -22 -10 -19 0 -20 2 -8 10 19 13 30
13 30 0z m-5431 -79 c12 -8 12 -12 2 -25 -19 -23 -61 -21 -61 3 0 27 32 39 59
22z m206 -111 c17 -11 48 -25 70 -31 22 -6 49 -19 60 -29 11 -9 37 -23 58 -30
20 -6 37 -16 37 -21 0 -5 12 -12 28 -15 15 -4 36 -15 47 -24 11 -10 40 -24 65
-30 24 -7 55 -20 68 -31 14 -11 40 -19 61 -19 20 0 59 -9 87 -19 28 -11 82
-25 120 -31 38 -7 87 -20 109 -30 22 -10 72 -21 110 -24 91 -8 123 -13 165
-26 52 -15 201 -12 267 5 32 9 87 17 123 19 103 6 173 17 195 31 24 14 155 35
228 35 29 1 77 9 107 20 30 11 73 20 95 20 22 0 63 12 90 25 28 14 66 25 86
25 22 0 48 9 69 25 23 17 47 25 76 25 26 0 51 7 66 19 13 11 42 23 64 27 21 3
57 17 79 29 35 20 123 36 200 37 63 0 220 -23 240 -36 12 -8 51 -20 86 -26 35
-6 78 -20 95 -31 17 -10 49 -19 71 -19 21 0 57 -9 78 -21 29 -14 72 -23 153
-29 67 -5 123 -15 135 -23 32 -21 124 -27 397 -28 249 -1 285 2 331 29 22 12
30 13 55 1 55 -27 42 -65 -57 -166 -53 -53 -99 -76 -169 -80 -30 -3 -69 -12
-87 -21 -30 -15 -36 -15 -88 2 -34 10 -97 19 -163 21 -117 3 -191 13 -208 27
-14 10 -117 38 -142 38 -10 0 -33 9 -53 19 -20 11 -54 23 -75 26 -22 4 -49 14
-61 21 -12 8 -46 19 -75 25 -29 6 -63 18 -76 25 -13 8 -67 22 -120 30 -53 9
-108 21 -121 27 -32 16 -279 16 -289 1 -14 -21 -51 -34 -100 -34 -42 0 -52 -4
-66 -25 -13 -20 -25 -25 -56 -25 -29 0 -42 -5 -50 -20 -6 -11 -18 -20 -28 -20
-9 0 -44 -14 -77 -30 -33 -16 -72 -30 -87 -30 -14 0 -48 -11 -75 -25 -29 -15
-74 -28 -113 -31 -36 -4 -71 -11 -78 -17 -7 -5 -49 -16 -93 -23 -45 -7 -88
-19 -97 -27 -10 -8 -51 -18 -92 -22 -41 -3 -93 -13 -116 -21 -57 -19 -109 -25
-249 -28 -123 -3 -310 13 -333 28 -7 4 -45 12 -84 17 -39 5 -79 16 -88 24 -9
8 -43 20 -76 26 -32 7 -68 20 -79 29 -11 10 -37 20 -59 23 -21 3 -47 14 -57
23 -10 9 -39 20 -64 25 -26 5 -58 17 -71 28 -14 11 -39 23 -57 27 -18 3 -42
15 -55 24 -12 10 -45 21 -72 25 -27 4 -60 15 -73 25 -13 11 -48 22 -78 26 -30
3 -68 15 -85 25 -46 28 -263 28 -314 0 -19 -10 -65 -21 -101 -25 -37 -4 -82
-15 -100 -25 -19 -10 -56 -21 -84 -25 -27 -4 -64 -16 -81 -26 -17 -10 -51 -21
-75 -25 -24 -4 -61 -15 -81 -26 -25 -12 -78 -22 -155 -29 -65 -6 -140 -17
-168 -25 -38 -11 -93 -14 -225 -11 -342 7 -379 15 -400 83 -7 21 -21 45 -32
54 -11 9 -22 33 -25 56 -5 35 -2 45 20 67 30 30 72 34 98 10 14 -12 51 -16
186 -20 140 -4 178 -9 228 -27 78 -28 264 -31 335 -4 25 9 77 20 115 23 44 4
80 13 97 25 14 10 57 23 94 29 37 6 79 17 93 24 14 8 51 19 81 25 30 7 62 19
72 28 11 9 47 20 85 25 36 4 73 14 82 22 18 16 59 22 171 24 60 2 81 -2 105
-18z m4945 -60 c0 -5 -4 -10 -10 -10 -5 0 -10 5 -10 10 0 6 5 10 10 10 6 0 10
-4 10 -10z m-5875 -40 c19 -7 19 -8 -5 -18 -43 -17 -262 -25 -293 -11 -33 15
-35 26 -4 32 43 7 282 6 302 -3z m887 -304 c13 -9 48 -20 78 -26 29 -6 61 -16
69 -24 9 -8 36 -19 61 -26 25 -7 53 -21 63 -31 10 -10 30 -19 46 -19 15 0 36
-8 45 -19 9 -10 43 -24 76 -30 33 -7 60 -16 60 -21 0 -4 24 -16 53 -25 28 -10
59 -24 68 -32 9 -7 42 -18 74 -23 32 -5 65 -16 74 -24 10 -9 53 -19 101 -25
47 -5 101 -18 120 -28 31 -16 63 -18 300 -17 272 0 320 5 320 28 0 9 16 13 53
13 98 0 228 15 241 29 8 7 48 17 90 23 41 5 90 18 108 29 18 10 56 25 83 32
28 7 57 19 66 27 8 7 33 13 55 13 22 0 58 9 79 20 22 12 61 25 88 30 26 5 59
18 75 29 15 10 45 22 66 26 21 3 45 13 53 21 16 16 26 18 133 31 95 12 275 -1
355 -27 33 -10 86 -24 117 -29 32 -6 70 -17 86 -25 15 -8 57 -18 93 -22 35 -3
87 -15 114 -26 28 -10 83 -23 124 -28 41 -6 77 -14 80 -19 3 -5 32 -12 63 -16
76 -10 92 -22 83 -64 -5 -22 -18 -39 -44 -55 -20 -13 -42 -31 -50 -40 -7 -9
-18 -16 -23 -16 -5 0 -21 -9 -35 -20 -34 -26 -52 -25 -93 5 -19 14 -42 25 -52
25 -11 0 -38 9 -61 19 -24 11 -71 23 -105 27 -35 4 -70 13 -77 21 -8 7 -40 18
-72 24 -32 6 -65 17 -74 25 -9 8 -45 19 -80 25 -35 6 -88 17 -118 26 -72 20
-187 20 -226 -1 -16 -9 -39 -16 -49 -16 -11 0 -38 -11 -60 -24 -23 -13 -59
-28 -81 -32 -22 -4 -50 -15 -63 -25 -12 -9 -42 -20 -65 -24 -23 -4 -55 -15
-72 -25 -16 -10 -48 -22 -70 -25 -22 -4 -49 -15 -60 -25 -11 -10 -50 -23 -89
-29 -37 -5 -76 -17 -85 -25 -9 -8 -45 -18 -81 -22 -35 -4 -78 -15 -95 -24 -16
-10 -64 -21 -105 -25 -41 -3 -86 -13 -99 -22 -33 -21 -190 -34 -426 -35 -212
0 -360 14 -386 38 -8 8 -38 17 -65 20 -27 3 -60 14 -74 23 -14 10 -49 21 -78
24 -29 3 -68 15 -85 25 -18 11 -48 22 -68 26 -21 4 -48 15 -62 26 -14 11 -31
20 -38 20 -7 0 -31 11 -53 24 -23 13 -59 27 -80 31 -20 4 -40 14 -43 21 -3 8
-24 19 -47 25 -22 6 -50 19 -61 29 -11 10 -36 21 -55 25 -19 4 -47 17 -63 29
-27 20 -41 21 -210 21 -158 0 -187 -3 -217 -19 -19 -10 -61 -25 -92 -32 -32
-8 -69 -20 -81 -28 -12 -8 -40 -18 -62 -21 -22 -4 -50 -13 -62 -21 -12 -7 -54
-21 -95 -30 -40 -9 -82 -23 -93 -30 -38 -25 -152 -39 -202 -26 -45 12 -122 74
-145 116 -15 28 22 56 76 56 23 0 57 8 76 19 19 10 64 21 99 25 36 4 76 13 90
21 14 7 53 18 86 25 33 7 75 21 95 31 19 11 48 19 65 19 16 0 49 9 73 20 23
11 79 26 123 35 45 8 86 18 92 22 39 25 301 24 339 -1z m-1075 -111 c-11 -7
-25 -11 -33 -8 -25 10 -15 23 19 23 30 -1 31 -2 14 -15z m-407 -95 c0 -5 -4
-10 -10 -10 -5 0 -10 5 -10 10 0 6 5 10 10 10 6 0 10 -4 10 -10z m3284 -51
c-6 -11 -88 -10 -124 0 -21 7 -18 9 25 15 28 4 57 8 65 10 19 3 42 -13 34 -25z
m-364 -45 c0 -2 -9 -4 -21 -4 -11 0 -18 4 -14 10 5 8 35 3 35 -6z m-1493 -46
c10 -8 39 -21 66 -28 26 -7 51 -18 55 -25 4 -7 23 -20 42 -29 19 -8 42 -20 50
-25 25 -16 148 -71 158 -71 5 0 17 -9 26 -19 10 -10 38 -24 63 -30 25 -7 52
-18 59 -26 8 -7 40 -16 71 -20 32 -3 81 -17 108 -31 28 -13 68 -24 89 -24 21
0 52 -6 69 -14 29 -13 73 -20 222 -34 28 -2 193 -4 368 -4 297 1 447 11 487
32 9 5 60 13 113 19 56 7 114 19 135 30 21 10 64 22 97 26 33 4 67 13 75 20 8
7 33 18 56 24 22 6 49 19 58 30 10 10 33 22 52 26 19 3 37 12 40 19 3 8 25 21
49 30 24 10 49 24 55 32 7 7 21 14 31 14 10 0 28 11 41 24 16 16 39 25 73 29
28 3 68 15 90 26 49 26 95 27 127 1 14 -10 51 -23 83 -28 35 -6 61 -16 67 -25
5 -9 25 -19 45 -23 20 -4 52 -17 71 -30 19 -13 45 -24 57 -24 14 0 39 -18 65
-46 l42 -46 -25 -26 c-24 -24 -37 -27 -152 -35 -79 -7 -161 -7 -222 -1 -104
10 -225 -3 -273 -29 -14 -8 -42 -20 -62 -26 -20 -7 -42 -19 -48 -27 -7 -7 -23
-14 -35 -14 -12 0 -33 -8 -46 -19 -13 -10 -48 -24 -76 -31 -29 -6 -53 -16 -53
-21 0 -4 -21 -15 -47 -22 -27 -8 -66 -24 -88 -35 -23 -11 -72 -23 -114 -27
-41 -4 -90 -14 -109 -22 -54 -22 -304 -34 -697 -31 -394 2 -544 10 -577 32
-13 8 -50 18 -83 21 -34 4 -69 15 -80 25 -11 10 -38 21 -60 24 -22 4 -54 15
-71 25 -16 10 -48 21 -69 25 -22 4 -58 19 -81 32 -22 13 -49 24 -58 24 -10 0
-31 11 -48 25 -16 14 -37 25 -45 25 -9 0 -30 9 -47 19 -17 11 -63 25 -101 31
-39 7 -85 19 -104 26 -38 16 -122 9 -156 -12 -11 -7 -53 -17 -94 -23 -40 -7
-82 -16 -92 -21 -35 -19 -117 -12 -159 15 -22 14 -40 32 -40 41 0 9 15 36 33
61 26 37 49 53 127 90 52 25 102 51 110 58 8 7 35 15 59 19 24 4 55 16 70 27
21 17 37 20 83 17 32 -2 65 -11 75 -20z m3553 -108 c0 -5 -7 -7 -15 -4 -8 4
-15 8 -15 10 0 2 7 4 15 4 8 0 15 -4 15 -10z m220 -50 c0 -6 -7 -13 -15 -16
-20 -8 -48 3 -40 16 8 13 55 13 55 0z m-115 -40 c3 -5 -8 -16 -25 -25 -23 -12
-35 -13 -51 -5 -16 9 -18 14 -8 26 13 16 75 19 84 4z m-457 -202 c-5 -14 -51
-23 -74 -14 -27 10 -4 26 37 26 28 0 39 -4 37 -12z m-193 -8 c3 -5 -1 -10 -9
-10 -9 0 -16 5 -16 10 0 6 4 10 9 10 6 0 13 -4 16 -10z m-2681 -145 c-6 -16
-25 -19 -61 -9 -38 10 -26 24 22 24 35 0 43 -3 39 -15z m103 -61 c-3 -3 -12
-4 -19 -1 -8 3 -5 6 6 6 11 1 17 -2 13 -5z m2029 -18 c8 -8 10 -17 6 -20 -19
-11 -89 -16 -117 -8 l-30 9 30 16 c37 20 92 22 111 3z m-1881 -16 c15 -7 9 -9
-25 -9 -33 -1 -41 2 -30 9 18 12 28 12 55 0z m1503 -47 c5 -18 -22 -27 -56
-18 -26 6 -26 7 -7 21 23 17 56 15 63 -3z m-1211 1 c-3 -3 -12 -4 -19 -1 -8 3
-5 6 6 6 11 1 17 -2 13 -5z"/>
<path d="M7030 11699 c-47 -5 -119 -11 -160 -13 -41 -3 -124 -9 -185 -15 -60
-6 -182 -15 -270 -21 -88 -6 -182 -13 -210 -15 -185 -17 -318 -24 -512 -24
-123 -1 -228 -3 -235 -5 -7 -3 -25 -7 -40 -10 -44 -10 -23 -34 49 -56 82 -25
312 -27 532 -5 80 8 235 19 344 25 110 5 229 17 265 25 41 9 174 19 342 25
247 9 397 24 429 44 16 10 13 43 -5 50 -22 8 -242 5 -344 -5z"/>
<path d="M4807 11150 c-22 -4 -49 -18 -63 -34 -14 -14 -29 -26 -34 -26 -6 0
-10 -5 -10 -11 0 -6 31 -10 83 -9 230 2 870 -17 978 -30 149 -18 335 -22 469
-11 352 30 360 31 360 56 0 27 -75 34 -465 39 -220 3 -425 8 -455 11 -48 4
-660 21 -780 22 -25 0 -62 -3 -83 -7z"/>
<path d="M7394 10955 c-45 -7 -92 -20 -105 -28 -13 -8 -51 -18 -83 -22 -33 -4
-76 -15 -95 -26 -20 -10 -47 -19 -62 -19 -14 0 -46 -11 -71 -24 -25 -13 -60
-27 -79 -31 -19 -4 -47 -15 -64 -25 -16 -9 -43 -21 -59 -24 -16 -4 -41 -16
-54 -27 -14 -10 -30 -19 -36 -19 -6 0 -29 -14 -50 -30 -22 -17 -47 -30 -56
-30 -9 0 -25 -9 -35 -20 -10 -11 -22 -20 -28 -20 -9 0 -52 -33 -110 -85 -15
-14 -33 -25 -39 -25 -6 0 -22 -11 -37 -25 -60 -58 -69 -65 -79 -65 -6 0 -16
-8 -21 -17 -5 -10 -30 -38 -55 -63 -25 -25 -46 -50 -46 -56 0 -6 -11 -21 -25
-34 -14 -13 -25 -29 -25 -36 0 -6 -7 -17 -16 -25 -9 -7 -23 -27 -32 -45 -68
-131 -91 -183 -97 -211 -3 -18 -15 -42 -24 -55 -10 -13 -22 -47 -26 -75 -4
-29 -16 -64 -27 -78 -14 -18 -23 -52 -30 -113 -9 -79 -10 -103 -8 -159 1 -34
-7 -108 -14 -131 -4 -13 -3 -28 2 -35 5 -7 13 -61 17 -122 9 -140 18 -189 39
-210 12 -12 16 -35 16 -85 0 -47 8 -94 25 -146 14 -42 25 -93 25 -114 0 -20 7
-59 15 -86 31 -102 40 -249 16 -278 -6 -8 -15 -47 -20 -87 -5 -42 -18 -92 -30
-115 -12 -23 -24 -66 -27 -95 -4 -33 -16 -68 -31 -91 -14 -20 -23 -47 -21 -60
3 -22 5 -23 95 -20 73 3 104 0 150 -16 32 -11 80 -23 107 -27 43 -7 57 -15
104 -64 79 -82 92 -97 92 -107 0 -5 10 -27 22 -49 11 -22 25 -60 30 -84 4 -25
16 -53 25 -63 9 -10 20 -47 25 -81 4 -34 13 -93 19 -132 16 -101 17 -273 3
-315 -7 -19 -15 -80 -19 -135 -4 -67 -12 -112 -24 -136 -11 -19 -24 -62 -31
-95 -7 -32 -18 -70 -25 -84 -7 -14 -16 -45 -20 -69 -4 -24 -18 -64 -31 -89
-13 -25 -24 -60 -24 -78 0 -24 -7 -38 -24 -50 -14 -8 -28 -28 -31 -44 -3 -16
-12 -34 -20 -40 -7 -6 -16 -23 -20 -37 -3 -14 -18 -38 -33 -52 -15 -15 -50
-52 -79 -83 -28 -30 -64 -62 -80 -70 -15 -9 -41 -23 -58 -32 -16 -9 -45 -16
-64 -16 -19 0 -43 -7 -53 -17 -14 -13 -41 -16 -136 -17 -108 -1 -119 1 -139
21 -27 27 -92 41 -103 23 -10 -16 -3 -38 20 -65 11 -13 19 -42 22 -81 2 -35
13 -77 26 -102 20 -39 22 -57 22 -206 0 -146 -2 -165 -19 -185 -21 -25 -35
-83 -26 -111 3 -11 -3 -36 -13 -57 -21 -40 -52 -162 -52 -201 0 -12 -7 -33
-15 -45 -8 -13 -17 -60 -21 -112 -4 -60 -11 -94 -21 -102 -15 -12 -33 -115
-32 -180 1 -21 -4 -65 -10 -98 -19 -100 -32 -219 -27 -239 3 -10 -2 -46 -10
-79 -14 -52 -14 -61 -1 -74 11 -12 19 -12 35 -4 11 6 38 11 59 11 21 0 50 6
64 14 14 7 59 16 99 20 40 4 96 17 124 28 28 11 70 26 93 33 23 7 49 19 57 27
8 8 36 18 62 22 26 3 55 12 63 20 9 7 57 19 106 25 50 7 110 20 135 28 33 12
97 17 237 20 177 4 196 3 238 -16 26 -11 69 -23 96 -27 28 -4 57 -13 64 -21 8
-8 37 -21 64 -29 27 -8 51 -20 54 -28 3 -8 23 -20 44 -26 21 -7 49 -21 62 -31
13 -11 29 -19 35 -19 6 0 34 -11 61 -25 28 -13 57 -25 65 -25 8 0 20 -8 27
-19 7 -11 29 -21 54 -25 23 -4 54 -16 70 -26 19 -14 57 -23 130 -31 57 -5 119
-17 137 -26 53 -25 57 -6 23 122 -6 22 -15 71 -21 109 -6 40 -18 79 -30 93
-13 17 -20 41 -20 68 0 27 -7 51 -20 67 -10 14 -24 55 -30 93 -6 37 -15 75
-20 84 -25 48 -33 295 -34 1136 -1 931 5 1297 23 1303 16 5 13 31 -5 50 -12
12 -15 26 -10 56 4 23 6 48 5 56 -1 8 -3 96 -5 195 -1 99 -3 254 -5 345 -7
368 13 3456 23 3473 7 14 5 24 -8 38 -19 21 -26 21 -140 4z m-376 -357 c2 -22
-3 -39 -12 -47 -24 -20 -44 29 -27 65 15 34 35 26 39 -18z m-348 -227 c0 -46
-10 -56 -35 -37 -16 12 -16 14 -1 44 22 43 36 40 36 -7z m85 9 c3 -5 1 -10 -4
-10 -6 0 -11 5 -11 10 0 6 2 10 4 10 3 0 8 -4 11 -10z m159 -24 c7 -30 -2 -58
-18 -53 -18 6 -20 77 -3 77 8 0 18 -11 21 -24z m-494 -113 c0 -18 -5 -24 -17
-21 -19 4 -28 30 -19 55 9 23 36 -3 36 -34z m-110 -67 c-13 -13 -35 7 -25 24
5 8 11 8 21 -1 10 -8 12 -15 4 -23z m575 9 c0 -5 -10 -11 -22 -13 -16 -2 -23
2 -23 13 0 11 7 15 23 13 12 -2 22 -7 22 -13z m-672 -39 c6 -16 -2 -28 -14
-20 -12 7 -11 34 0 34 5 0 11 -6 14 -14z m404 -47 c16 -16 5 -39 -17 -39 -23
0 -34 16 -26 35 6 18 28 19 43 4z m-257 -19 c0 -11 -4 -20 -10 -20 -5 0 -10 9
-10 20 0 11 5 20 10 20 6 0 10 -9 10 -20z m110 5 c0 -8 -4 -15 -10 -15 -5 0
-10 7 -10 15 0 8 5 15 10 15 6 0 10 -7 10 -15z m-353 -91 c8 -21 -13 -42 -28
-27 -13 13 -5 43 11 43 6 0 13 -7 17 -16z m116 -9 c-4 -15 -36 -12 -41 3 -3 9
3 13 19 10 13 -1 23 -7 22 -13z m1134 -1 c-3 -3 -12 -4 -19 -1 -8 3 -5 6 6 6
11 1 17 -2 13 -5z m-843 -33 c11 -18 -6 -41 -30 -41 -25 0 -28 7 -18 34 7 17
39 22 48 7z m106 -11 c0 -5 -9 -10 -21 -10 -11 0 -17 5 -14 10 3 6 13 10 21
10 8 0 14 -4 14 -10z m490 -41 c0 -24 -21 -33 -56 -25 -35 9 -28 39 11 47 37
7 45 3 45 -22z m-345 -9 c0 -18 -6 -26 -23 -28 -24 -4 -38 18 -28 44 3 9 15
14 28 12 17 -2 23 -10 23 -28z m-555 2 c0 -25 -25 -58 -34 -44 -8 13 10 62 24
62 5 0 10 -8 10 -18z m418 -54 c2 -12 -5 -19 -23 -24 -31 -8 -50 7 -41 31 8
22 60 16 64 -7z m-222 -22 c9 -38 -6 -52 -22 -21 -14 27 -11 45 6 45 5 0 12
-11 16 -24z m-136 -66 c6 -10 26 -27 45 -36 41 -19 44 -30 11 -46 -32 -14 -54
-5 -66 27 -6 15 -17 25 -30 25 -22 0 -26 20 -8 38 18 18 36 15 48 -8z m650
-16 c0 -22 -29 -29 -47 -11 -13 13 -14 19 -4 31 16 19 51 5 51 -20z m176 14
c4 -6 2 -14 -5 -16 -8 -3 -22 -13 -33 -24 -30 -30 -58 1 -35 40 10 15 63 16
73 0z m-1011 -8 c3 -5 -1 -10 -9 -10 -9 0 -16 5 -16 10 0 6 4 10 9 10 6 0 13
-4 16 -10z m600 0 c4 -6 -7 -10 -27 -9 -27 0 -30 2 -13 9 27 12 33 12 40 0z
m-121 -37 c4 -9 0 -23 -9 -32 -13 -14 -17 -14 -32 1 -13 14 -14 20 -3 32 16
21 36 20 44 -1z m-506 -4 c-2 -6 -8 -10 -13 -10 -5 0 -11 4 -13 10 -2 6 4 11
13 11 9 0 15 -5 13 -11z m-98 -25 c0 -31 -23 -28 -28 4 -2 15 2 22 12 22 11 0
16 -9 16 -26z m844 -4 c13 -28 13 -31 -3 -40 -24 -12 -31 -4 -31 37 0 41 14
42 34 3z m-344 -31 c0 -5 -7 -9 -15 -9 -15 0 -20 12 -9 23 8 8 24 -1 24 -14z
m160 -38 c0 -12 -23 -31 -37 -31 -16 0 -17 22 -2 37 11 11 39 7 39 -6z m85
-11 c3 -5 1 -10 -4 -10 -6 0 -11 5 -11 10 0 6 2 10 4 10 3 0 8 -4 11 -10z
m-709 -47 c-10 -10 -19 5 -10 18 6 11 8 11 12 0 2 -7 1 -15 -2 -18z m219 -9
c0 -19 -5 -29 -15 -29 -16 0 -25 28 -16 51 10 25 31 10 31 -22z m215 10 c0 -2
-10 -14 -21 -25 -17 -17 -23 -19 -30 -8 -12 20 -11 37 4 42 12 4 47 -2 47 -9z
m97 -1 c2 -6 -6 -17 -18 -23 -17 -10 -24 -9 -36 3 -9 8 -12 20 -8 27 9 14 57
9 62 -7z m346 3 c7 -18 -1 -26 -29 -26 -25 0 -39 14 -29 30 9 15 52 12 58 -4z
m46 -45 c16 -10 6 -31 -14 -31 -17 0 -28 17 -20 30 8 12 16 12 34 1z m389 -33
c16 -16 15 -45 -2 -51 -7 -3 -23 1 -35 9 -17 13 -19 18 -8 34 14 23 28 25 45
8z m-1354 -15 c8 -19 -8 -38 -23 -29 -16 10 -13 46 3 46 8 0 17 -8 20 -17z
m154 -11 c3 -20 0 -23 -20 -20 -15 2 -24 11 -26 26 -3 20 0 23 20 20 15 -2 24
-11 26 -26z m501 15 c8 -10 7 -17 -1 -25 -18 -18 -38 -14 -38 6 0 32 20 42 39
19z m156 -22 c0 -25 -4 -30 -25 -30 -19 0 -26 6 -28 24 -4 25 13 43 38 38 9
-1 15 -13 15 -32z m395 11 c12 -33 2 -66 -21 -66 -23 0 -35 40 -19 69 14 28
28 27 40 -3z m-915 -56 c0 -18 -43 -26 -57 -12 -16 16 2 33 30 30 16 -2 27 -9
27 -18z m750 -47 c-4 -11 -9 -13 -16 -6 -6 6 -6 19 2 39 12 28 13 28 17 6 2
-13 1 -31 -3 -39z m-290 27 c8 -25 -11 -51 -31 -43 -14 5 -19 44 -7 56 13 13
32 7 38 -13z m210 -25 c0 -13 -8 -21 -22 -23 -17 -3 -23 2 -23 16 0 10 3 22 7
26 13 13 38 1 38 -19z m-909 4 c10 -17 -13 -36 -27 -22 -12 12 -4 33 11 33 5
0 12 -5 16 -11z m-98 -69 c-1 -16 -5 -30 -9 -30 -11 0 -22 38 -14 50 12 20 24
10 23 -20z m292 5 c0 -8 -4 -15 -9 -15 -13 0 -22 16 -14 24 11 11 23 6 23 -9z
m951 -26 c11 -11 18 -27 15 -36 -3 -8 -6 -19 -6 -24 0 -5 -7 -9 -15 -9 -16 0
-55 55 -55 78 0 19 38 14 61 -9z m-535 -28 c-9 -14 -43 -14 -52 1 -4 6 1 17
12 25 15 11 20 11 32 -1 8 -8 11 -19 8 -25z m-516 14 c0 -8 -2 -15 -4 -15 -2
0 -6 7 -10 15 -3 8 -1 15 4 15 6 0 10 -7 10 -15z m420 -53 c0 -19 -23 -32 -37
-21 -20 17 -15 29 12 29 14 0 25 -4 25 -8z m188 -50 c3 -16 -2 -22 -17 -22
-26 0 -36 17 -20 36 16 19 33 13 37 -14z m356 5 c8 -13 7 -20 -4 -27 -20 -12
-45 12 -36 35 7 20 25 16 40 -8z m-859 4 c3 -5 1 -12 -5 -16 -5 -3 -10 1 -10
9 0 18 6 21 15 7z m161 1 c8 -4 9 -21 5 -47 -7 -39 -7 -40 -49 -39 -23 0 -45
3 -48 7 -10 9 6 47 20 47 7 0 21 9 31 20 20 22 24 23 41 12z m244 -6 c0 -15
-14 -35 -21 -30 -15 9 -10 34 6 34 8 0 15 -2 15 -4z m248 -53 c-5 -26 -38 -29
-38 -4 0 15 6 21 21 21 14 0 19 -5 17 -17z m-935 0 c-7 -2 -19 -2 -25 0 -7 3
-2 5 12 5 14 0 19 -2 13 -5z m1283 -15 c-3 -13 -6 -29 -6 -37 0 -10 -3 -11
-14 -2 -17 14 -9 61 11 61 11 0 14 -6 9 -22z m-751 -28 c0 -35 -21 -53 -31
-26 -9 23 5 68 19 63 7 -2 12 -19 12 -37z m301 6 c9 -39 -6 -53 -27 -25 -13
17 -15 27 -7 36 16 20 27 16 34 -11z m-554 -28 c-6 -6 -14 -9 -17 -6 -3 3 -3
13 1 22 5 12 10 14 17 7 8 -8 8 -14 -1 -23z m806 -8 c7 -11 21 -20 32 -20 11
0 20 -7 20 -15 0 -22 -36 -19 -60 5 -20 20 -27 50 -12 50 4 0 13 -9 20 -20z
m-438 -31 c0 -24 -33 -42 -48 -27 -16 16 -15 34 4 53 19 19 44 4 44 -26z
m-100 -29 c14 -26 5 -40 -24 -40 -33 0 -53 25 -36 45 18 21 47 19 60 -5z
m-152 -37 c2 -29 -1 -43 -9 -43 -11 0 -79 63 -79 74 0 7 33 14 60 13 22 -2 25
-7 28 -44z m546 31 c21 -54 -9 -107 -39 -68 -15 20 -20 66 -8 77 12 13 41 7
47 -9z m-159 -14 c0 -8 -8 -16 -17 -18 -13 -2 -18 3 -18 18 0 15 5 20 18 18 9
-2 17 -10 17 -18z m-677 -44 c4 -5 6 -51 3 -102 0 -12 -9 -24 -20 -27 -22 -5
-38 20 -44 73 -2 19 -8 44 -12 54 -8 17 -5 19 30 13 20 -3 40 -8 43 -11z m582
4 c13 -9 13 -11 0 -19 -16 -11 -43 5 -34 20 7 11 15 11 34 -1z m-402 -32 c20
-20 14 -46 -17 -67 -38 -27 -57 -26 -65 2 -9 34 -7 44 10 61 18 19 55 21 72 4z
m797 -27 c-10 -16 -25 -3 -25 22 0 20 1 20 16 5 9 -9 13 -21 9 -27z m-595 0
c0 -24 -23 -43 -43 -35 -27 10 -8 54 24 54 12 0 19 -7 19 -19z m248 2 c-5 -25
-28 -28 -28 -4 0 12 6 21 16 21 9 0 14 -7 12 -17z m96 -59 c4 -10 1 -14 -6
-12 -15 5 -23 28 -10 28 5 0 13 -7 16 -16z m296 -38 c0 -8 -4 -17 -9 -20 -10
-7 -23 19 -14 28 11 11 23 6 23 -8z m-246 -4 c8 -13 -11 -35 -23 -28 -16 10
-14 36 3 36 8 0 17 -4 20 -8z m364 -39 c3 -22 -22 -48 -38 -38 -14 9 -13 52 3
58 20 8 32 2 35 -20z m-510 -10 c-4 -34 -28 -43 -28 -10 0 25 7 37 22 37 5 0
8 -12 6 -27z m-308 2 c0 -16 -35 -21 -44 -6 -8 12 4 21 26 21 10 0 18 -7 18
-15z m-132 -53 c2 -12 13 -27 25 -33 12 -7 23 -13 25 -14 6 -5 -18 -55 -27
-55 -5 0 -14 14 -21 30 -7 18 -20 30 -31 30 -22 0 -35 36 -18 56 17 21 43 13
47 -14z m546 11 c8 -19 -17 -48 -33 -39 -12 8 -15 39 -4 49 12 12 31 7 37 -10z
m303 1 c10 -26 -12 -38 -48 -28 -37 11 -49 30 -22 37 38 10 64 6 70 -9z m-553
-44 c38 -14 35 -50 -3 -50 -37 0 -59 24 -41 45 15 18 12 17 44 5z m396 -40 c0
-18 -6 -33 -15 -37 -20 -7 -21 -5 -30 35 -6 30 -5 32 19 32 22 0 26 -4 26 -30z
m300 4 c11 -29 6 -44 -15 -44 -20 0 -27 15 -19 45 8 32 22 32 34 -1z m-802
-43 c4 -43 -4 -62 -23 -55 -10 4 -15 20 -15 51 0 37 3 44 18 41 11 -2 18 -14
20 -37z m301 25 c6 -7 9 -21 5 -30 -8 -21 -67 -21 -85 0 -11 14 -10 18 6 30
24 18 59 18 74 0z m388 -1 c8 -22 -2 -28 -33 -21 -25 7 -26 8 -8 21 25 19 33
18 41 0z m-101 -73 c-4 -3 -11 -1 -17 5 -8 8 -7 17 3 32 13 22 13 22 16 -5 2
-14 1 -28 -2 -32z m-850 9 c-4 -5 -13 -8 -22 -4 -11 4 -12 8 -3 20 14 16 36 2
25 -16z m124 -45 c0 -8 -7 -20 -16 -27 -13 -11 -20 -11 -41 1 -32 18 -33 31
-3 47 27 13 60 1 60 -21z m106 -37 c16 -17 16 -22 4 -30 -25 -15 -45 -5 -48
24 -4 33 17 36 44 6z m479 -5 c0 -20 -26 -30 -53 -19 -15 6 -14 9 7 26 28 23
46 20 46 -7z m219 10 c25 -10 19 -21 -14 -26 -32 -5 -46 4 -35 22 7 11 26 13
49 4z m-916 -21 c5 -17 -26 -29 -40 -15 -6 6 -7 15 -3 22 9 14 37 9 43 -7z
m602 -49 c0 -8 -10 -14 -25 -14 -29 0 -35 26 -7 33 22 5 32 -1 32 -19z m-446
-40 c3 -9 6 -29 6 -45 0 -22 5 -29 20 -29 28 0 43 -32 25 -56 -11 -15 -17 -17
-32 -8 -10 6 -20 20 -22 30 -2 10 -12 25 -22 32 -11 7 -19 18 -19 24 0 6 -8
20 -17 30 -15 17 -15 20 -3 28 23 15 57 12 64 -6z m294 4 c19 -19 14 -56 -8
-63 -37 -12 -47 5 -30 49 11 29 20 32 38 14z m95 -8 c-3 -11 -9 -20 -14 -20
-10 0 -12 24 -2 33 13 13 21 7 16 -13z m107 10 c25 -13 15 -42 -14 -38 -13 2
-22 12 -24 26 -4 24 8 28 38 12z m197 -6 c9 -24 -22 -44 -54 -35 -37 10 -39
27 -6 39 41 15 53 14 60 -4z m97 -40 c8 -20 -2 -54 -14 -54 -12 0 -24 46 -15
59 9 16 22 13 29 -5z m-927 -10 c3 -8 -1 -23 -10 -32 -15 -14 -18 -14 -37 3
-15 14 -17 21 -9 32 16 18 48 17 56 -3z m1076 -32 c0 -18 -4 -36 -8 -40 -10
-11 -35 29 -35 56 0 19 5 23 23 20 18 -2 22 -9 20 -36z m-1088 -108 c12 -12
13 -19 4 -30 -6 -8 -17 -14 -24 -14 -6 0 -17 -12 -23 -26 -9 -18 -19 -24 -34
-22 -35 5 -34 34 1 53 17 8 31 22 31 29 0 8 6 17 13 19 6 3 13 6 14 6 1 1 9
-6 18 -15z m478 -10 c3 -3 3 -12 0 -20 -4 -10 -9 -11 -23 -2 -10 7 -16 16 -14
20 6 9 28 11 37 2z m167 -9 c0 -16 -64 -22 -74 -6 -9 14 5 21 41 21 23 0 33
-5 33 -15z m-402 -22 c5 -30 -25 -55 -62 -51 -43 4 -41 33 4 57 42 22 54 21
58 -6z m547 -23 c0 -19 -7 -26 -34 -32 -40 -11 -44 -8 -32 25 16 41 66 47 66
7z m-455 0 c0 -5 -4 -10 -10 -10 -5 0 -10 5 -10 10 0 6 5 10 10 10 6 0 10 -4
10 -10z m554 -36 c24 -9 20 -44 -4 -44 -12 0 -25 -10 -32 -25 -13 -28 -43 -33
-52 -9 -7 19 1 34 18 34 8 0 21 11 30 25 18 28 18 27 40 19z m-881 -54 c-5
-36 -4 -40 16 -40 18 0 22 -5 19 -27 -4 -39 -36 -43 -40 -6 -2 20 -9 29 -26
31 -13 2 -26 10 -29 18 -8 20 24 64 46 64 16 0 18 -6 14 -40z m348 -23 c-11
-31 -47 -35 -56 -6 -10 29 19 53 46 38 14 -7 16 -15 10 -32z m178 34 c16 -11
8 -41 -12 -41 -8 0 -26 -13 -40 -30 -17 -18 -37 -30 -52 -30 -21 0 -25 5 -25
28 0 42 35 68 110 81 3 0 11 -3 19 -8z m-279 -56 c6 -8 9 -23 5 -36 -6 -17
-12 -20 -38 -15 -54 11 -71 8 -91 -16 l-19 -23 6 25 c4 14 7 33 7 44 0 11 5
16 13 13 7 -3 26 1 42 8 40 18 60 18 75 0z m735 -16 c0 -7 -8 -15 -17 -17 -18
-3 -25 18 -11 32 10 10 28 1 28 -15z m-295 -3 c0 -7 7 -19 15 -26 21 -18 14
-33 -18 -37 -22 -3 -28 1 -35 29 -5 18 -7 36 -5 41 7 13 43 8 43 -7z m-763
-42 c-3 -3 -12 -4 -19 -1 -8 3 -5 6 6 6 11 1 17 -2 13 -5z m1003 -10 c0 -9 -7
-14 -17 -12 -25 5 -28 28 -4 28 12 0 21 -6 21 -16z m150 -38 c0 -8 -4 -17 -9
-21 -12 -7 -24 12 -16 25 9 15 25 12 25 -4z m-442 -8 c-7 -19 -38 -22 -38 -4
0 10 9 16 21 16 12 0 19 -5 17 -12z m228 -38 c32 -12 23 -25 -23 -33 -20 -4
-35 -1 -42 7 -13 16 -61 9 -61 -9 0 -12 -61 -65 -74 -65 -3 0 -6 6 -6 14 0 20
77 87 93 80 7 -2 24 0 38 5 32 13 43 13 75 1z m-336 -35 c0 -26 -25 -44 -40
-29 -12 13 7 54 25 54 9 0 15 -9 15 -25z m-234 -10 c10 -25 -16 -46 -50 -43
-23 2 -32 9 -34 25 -2 14 3 23 15 26 37 10 64 7 69 -8z m652 -3 c18 -12 4 -42
-19 -42 -24 0 -37 29 -18 41 17 11 21 11 37 1z m192 -2 c0 -11 -42 -30 -66
-30 -22 0 -17 20 9 30 30 12 57 12 57 0z m-693 -46 c13 -34 -26 -64 -56 -45
-12 8 -13 14 -3 35 13 29 49 35 59 10z m-82 -52 c6 -4 10 -19 10 -34 1 -24 -3
-28 -27 -28 -33 0 -63 37 -46 57 11 14 47 17 63 5z m275 -15 c0 -13 -3 -26 -6
-30 -12 -12 -34 6 -34 29 0 17 6 24 20 24 14 0 20 -7 20 -23z m554 8 c8 -21
-3 -45 -20 -45 -8 0 -17 7 -20 15 -8 21 2 45 20 45 7 0 16 -7 20 -15z m-279
-5 c9 -15 -43 -36 -56 -23 -6 6 -8 16 -5 22 9 14 53 14 61 1z m-415 -155 c0
-24 -19 -65 -30 -65 -5 0 -10 7 -10 15 0 8 -9 24 -20 35 -16 16 -24 18 -44 9
-27 -13 -61 -5 -51 11 3 5 17 10 31 10 13 0 29 9 36 19 11 18 12 18 50 -1 21
-11 38 -26 38 -33z m286 21 c10 -43 -8 -57 -41 -32 -19 14 -19 15 -1 35 25 27
34 26 42 -3z m-182 -5 c10 -15 -18 -86 -33 -86 -16 0 -35 59 -27 81 6 16 52
19 60 5z m473 -6 c3 -9 -1 -21 -9 -28 -8 -7 -22 -24 -31 -39 -19 -31 -38 -35
-56 -14 -9 11 -8 23 5 55 15 37 20 41 50 41 22 0 37 -6 41 -15z m-157 1 c0 -3
-4 -8 -10 -11 -5 -3 -10 -1 -10 4 0 6 5 11 10 11 6 0 10 -2 10 -4z m227 -120
c-4 -9 -16 -16 -27 -16 -15 0 -20 7 -20 24 0 13 6 26 13 29 18 7 41 -19 34
-37z m-443 15 c7 -10 -33 -23 -46 -15 -5 3 -6 10 -3 15 8 12 42 12 49 0z m184
-49 c3 -16 -2 -22 -17 -22 -24 0 -35 15 -27 36 9 23 40 13 44 -14z m-454 10
c3 -5 1 -22 -4 -38 -4 -16 -9 -22 -9 -14 -1 8 -4 25 -7 38 -6 21 9 32 20 14z
m365 -94 c-12 -44 -24 -54 -44 -38 -20 17 -19 69 2 92 16 18 17 18 35 1 15
-15 16 -24 7 -55z m419 -25 c3 -21 1 -22 -27 -12 -17 6 -31 14 -31 18 0 31 54
25 58 -6z m-630 -80 c3 -17 -3 -26 -21 -32 -26 -10 -67 -56 -67 -76 0 -6 -8
-20 -19 -29 -17 -15 -19 -15 -25 -1 -3 9 -6 34 -6 54 0 31 5 40 25 49 14 6 25
17 25 23 0 40 83 50 88 12z m247 -74 c8 -36 -10 -64 -25 -39 -11 17 -13 54 -3
63 13 14 22 6 28 -24z m-195 -33 c0 -26 -25 -53 -34 -37 -3 5 -4 16 -1 25 3 9
7 23 10 32 7 22 25 7 25 -20z m-46 -73 c-9 -38 -21 -50 -36 -35 -15 15 5 62
27 62 12 0 14 -7 9 -27z m156 -13 c0 -23 -26 -44 -45 -36 -19 7 -19 30 0 50
19 18 45 10 45 -14z m-284 -17 c3 -10 10 -26 15 -35 5 -10 6 -18 2 -18 -13 1
-63 48 -63 60 0 17 40 11 46 -7z m482 -7 c9 -21 16 -24 51 -19 36 5 44 2 69
-25 16 -17 47 -35 70 -41 31 -9 46 -20 58 -43 9 -18 34 -49 55 -69 33 -31 39
-44 39 -78 0 -39 -2 -42 -49 -66 -27 -13 -69 -27 -93 -31 -24 -4 -51 -11 -61
-16 -10 -5 -40 -4 -77 4 -53 10 -61 16 -66 38 -2 14 -9 46 -15 71 -8 37 -7 54
6 87 22 54 17 107 -10 107 -14 0 -24 -11 -33 -39 -7 -22 -19 -44 -27 -50 -9
-7 -19 -43 -26 -90 -6 -43 -15 -90 -20 -103 -6 -17 -4 -65 6 -147 10 -80 15
-232 17 -447 2 -286 0 -329 -14 -351 -9 -14 -19 -45 -23 -71 -4 -25 -18 -61
-31 -78 -13 -18 -24 -39 -24 -45 0 -14 -86 -123 -134 -169 -49 -46 -98 -77
-116 -72 -9 2 -28 -2 -41 -9 -15 -8 -59 -13 -120 -14 -81 0 -100 3 -122 20
-14 11 -30 20 -36 20 -6 0 -18 14 -27 32 -9 17 -26 40 -38 49 -19 15 -21 27
-21 109 0 85 2 94 23 108 12 8 22 22 22 30 0 16 75 92 90 92 22 0 60 -21 88
-50 41 -40 44 -92 8 -115 -25 -16 -46 -78 -46 -134 0 -37 34 -65 62 -50 15 8
18 22 18 74 0 66 6 80 29 65 10 -5 12 -19 7 -44 -6 -29 -3 -38 9 -43 15 -5 28
4 75 52 23 24 60 74 60 81 0 4 11 24 25 44 l25 37 6 294 c3 162 12 364 20 449
8 85 19 201 24 258 7 76 15 110 29 128 10 13 22 39 25 59 4 19 13 38 20 42 7
5 19 19 26 33 26 50 84 110 106 110 12 0 32 9 45 20 32 26 44 25 57 -4z m-308
-83 c0 -12 -11 -35 -25 -51 -14 -17 -25 -42 -25 -57 0 -14 -5 -35 -11 -46 -8
-16 -13 -18 -25 -8 -20 16 -17 52 6 82 11 14 20 30 20 35 0 6 10 29 22 51 22
42 38 40 38 -6z m-180 -68 c0 -17 -2 -18 -24 -9 -23 9 -20 24 4 24 11 0 20 -7
20 -15z m30 -144 c0 -38 -13 -46 -35 -21 -21 23 -13 50 15 50 15 0 20 -7 20
-29z m0 -107 c0 -16 -6 -39 -14 -49 -13 -18 -16 -19 -47 -4 l-33 16 29 14 c19
9 33 26 40 46 11 38 25 25 25 -23z m-96 -220 c9 -23 7 -87 -3 -103 -12 -18
-68 -5 -81 19 -7 13 -4 22 10 35 11 10 20 23 20 30 0 15 21 35 36 35 6 0 15
-7 18 -16z m101 -171 c-4 -10 -10 -39 -13 -66 -6 -58 -14 -65 -29 -26 -6 16
-7 29 -2 29 5 0 9 15 9 33 0 24 3 28 10 17 8 -12 10 -11 10 8 0 12 5 22 11 22
7 0 8 -7 4 -17z m-300 -143 c3 -5 -1 -10 -10 -10 -9 0 -13 5 -10 10 3 6 8 10
10 10 2 0 7 -4 10 -10z m295 -49 c0 -12 -28 -22 -34 -12 -3 5 -3 11 1 15 9 9
33 7 33 -3z m-260 -46 c0 -9 -11 -20 -24 -24 -13 -5 -26 -17 -30 -27 -4 -12
-10 -14 -17 -7 -16 16 1 44 35 59 17 7 32 13 34 14 1 0 2 -7 2 -15z m160 1 c0
-11 -19 -15 -25 -6 -3 5 1 10 9 10 9 0 16 -2 16 -4z m138 -64 c3 -22 0 -23
-40 -20 -36 3 -44 7 -46 26 -3 22 0 23 40 20 36 -3 44 -7 46 -26z m-428 -42
c0 -5 -9 -14 -20 -20 -12 -6 -25 -23 -30 -36 -7 -19 -16 -25 -32 -22 -35 5
-35 38 -2 65 29 23 84 32 84 13z m420 -60 c0 -5 -4 -10 -10 -10 -5 0 -10 5
-10 10 0 6 5 10 10 10 6 0 10 -4 10 -10z m-570 -39 c0 -5 -7 -14 -15 -21 -12
-10 -15 -10 -15 2 0 8 3 18 7 21 9 10 23 9 23 -2z m-52 -94 c3 -23 0 -27 -22
-27 -21 0 -26 5 -26 23 0 13 3 27 7 31 15 14 38 0 41 -27z m-158 -57 c0 -5 -7
-10 -15 -10 -8 0 -15 5 -15 10 0 6 7 10 15 10 8 0 15 -4 15 -10z m248 -42 c-2
-15 -11 -24 -25 -26 -28 -4 -31 22 -5 37 26 16 34 13 30 -11z m-358 -9 c0 -24
-23 -21 -28 4 -2 10 3 17 12 17 10 0 16 -9 16 -21z m168 -36 c10 -19 0 -57
-18 -68 -18 -11 -40 15 -35 43 7 40 38 54 53 25z m1131 -98 c-1 -77 -23 -91
-26 -17 -2 64 2 86 17 77 5 -3 9 -30 9 -60z m-982 -1 c3 -8 -2 -23 -11 -32
-15 -15 -17 -15 -33 0 -13 14 -14 20 -3 32 16 20 39 20 47 0z m-197 -84 c0
-32 -11 -50 -31 -50 -21 0 -26 29 -9 60 12 23 40 16 40 -10z m-160 -35 c0 -16
-6 -25 -15 -25 -15 0 -21 31 -8 43 13 14 23 6 23 -18z m300 -14 c20 -39 -13
-69 -40 -36 -10 13 -10 19 5 35 22 24 22 24 35 1z m116 -28 c4 -16 12 -34 18
-42 13 -17 37 -80 39 -105 1 -13 -7 -22 -25 -27 -33 -9 -42 2 -33 41 10 45 -3
90 -26 90 -20 0 -36 40 -24 59 13 22 44 12 51 -16z m908 1 c8 -22 8 -54 -1
-54 -13 1 -53 37 -53 48 0 23 46 28 54 6z m-1371 -40 c10 -11 -5 -34 -22 -34
-23 0 -31 9 -24 26 5 14 34 19 46 8z m1105 -16 c-2 -19 -10 -24 -41 -26 -27
-2 -39 1 -44 13 -8 22 13 35 55 35 29 0 33 -3 30 -22z m-1000 -56 c3 -16 -2
-22 -17 -22 -24 0 -35 15 -27 36 9 23 40 13 44 -14z m294 3 c-4 -19 -48 -64
-65 -65 -14 0 -21 34 -8 38 7 2 17 15 22 29 12 31 56 30 51 -2z m185 9 c-3 -3
-12 -4 -19 -1 -8 3 -5 6 6 6 11 1 17 -2 13 -5z m421 -71 c13 -43 9 -53 -22
-53 -26 0 -36 23 -29 64 8 40 37 33 51 -11z m387 27 c3 -5 1 -10 -4 -10 -6 0
-11 5 -11 10 0 6 2 10 4 10 3 0 8 -4 11 -10z m-1365 -45 c16 -14 16 -18 1 -50
-14 -29 -21 -34 -50 -35 l-34 0 7 42 c4 22 9 45 12 50 8 13 46 9 64 -7z m1119
1 c7 -8 11 -30 9 -48 -2 -28 -7 -33 -28 -33 -21 0 -26 5 -28 33 -3 31 11 62
28 62 4 0 13 -6 19 -14z m-289 -6 c13 -8 13 -9 0 -14 -8 -2 -23 -7 -33 -10
-26 -8 -41 3 -26 20 13 16 37 18 59 4z m-412 -12 c-6 -18 -28 -21 -28 -4 0 9
7 16 16 16 9 0 14 -5 12 -12z m1112 2 c0 -5 -7 -10 -16 -10 -8 0 -12 5 -9 10
3 6 10 10 16 10 5 0 9 -4 9 -10z m-843 -32 c21 -19 27 -21 44 -9 12 7 23 10
25 8 7 -7 -34 -97 -44 -97 -5 0 -26 15 -46 33 -24 23 -36 42 -36 60 0 34 24
36 57 5z m-107 -21 c0 -18 -7 -43 -16 -55 -15 -22 -17 -22 -35 -6 -35 31 -17
94 26 94 22 0 25 -5 25 -33z m-410 5 c0 -11 12 -24 26 -30 20 -10 25 -18 22
-40 -4 -38 -42 -38 -46 0 -2 14 -10 32 -18 38 -19 16 -18 50 1 50 8 0 15 -8
15 -18z m-90 -54 c0 -11 -5 -28 -11 -40 -11 -20 -11 -20 -35 3 -30 28 -31 57
-1 68 26 10 47 -3 47 -31z m280 7 c0 -27 -15 -41 -25 -25 -10 16 4 62 15 55 6
-3 10 -17 10 -30z m946 7 c19 -12 24 -52 7 -52 -22 0 -54 43 -40 52 15 10 19
10 33 0z m318 -48 c24 -23 19 -34 -14 -34 -34 0 -52 26 -29 41 19 12 25 11 43
-7z m-564 -14 c0 -5 -7 -10 -16 -10 -8 0 -12 5 -9 10 3 6 10 10 16 10 5 0 9
-4 9 -10z m-732 -50 c2 -14 11 -31 19 -37 21 -16 10 -27 -14 -14 -10 5 -26 12
-36 15 -38 12 -34 70 5 64 16 -2 24 -11 26 -28z m949 -14 c-4 -9 -16 -16 -27
-16 -29 0 -38 30 -15 47 16 11 21 11 33 -1 8 -8 12 -22 9 -30z m238 14 c0 -8
-7 -16 -15 -17 -22 -4 -44 13 -35 26 10 17 50 9 50 -9z m-1065 0 c0 -5 -2 -10
-4 -10 -3 0 -8 5 -11 10 -3 6 -1 10 4 10 6 0 11 -4 11 -10z m123 -32 c9 -27
-6 -38 -50 -38 -37 0 -44 3 -41 17 5 26 83 44 91 21z m151 -4 c21 -21 20 -31
-4 -39 -25 -8 -50 10 -50 36 0 24 32 25 54 3z m100 -1 c10 -26 -17 -48 -43
-34 -17 10 -19 15 -11 31 13 24 46 26 54 3z m-838 -5 c4 -6 -2 -19 -13 -28
-12 -9 -22 -25 -25 -36 -4 -25 -63 -33 -71 -10 -9 23 2 46 22 46 9 0 24 9 34
20 19 22 42 26 53 8z m1159 3 c8 -14 -13 -24 -33 -16 -14 5 -14 7 -2 15 19 12
27 12 35 1z m-930 -11 c-11 -18 -41 -29 -54 -20 -21 12 -3 30 30 30 18 0 28
-4 24 -10z m1200 0 c3 -5 -1 -10 -9 -10 -8 0 -18 5 -21 10 -3 6 1 10 9 10 8 0
18 -4 21 -10z m-446 -28 c6 -10 7 -28 4 -40 -7 -27 -62 -57 -77 -42 -8 8 -6
14 7 21 10 6 17 22 17 39 0 25 9 37 32 39 4 1 12 -7 17 -17z m-849 -44 c0 -26
-6 -37 -31 -50 -40 -23 -56 -23 -64 2 -8 24 10 50 34 50 10 0 26 7 37 15 25
19 24 20 24 -17z m208 -10 c22 -22 13 -38 -22 -38 -41 0 -56 18 -31 37 23 16
37 17 53 1z m240 -1 c6 -7 8 -27 3 -47 -5 -28 -12 -36 -34 -38 -14 -2 -33 1
-42 5 -13 8 -10 15 16 51 33 45 41 49 57 29z m756 4 c11 -18 -6 -41 -30 -41
-17 0 -24 6 -24 18 0 10 3 22 7 25 9 10 41 8 47 -2z m-1489 -21 c0 -18 -33
-26 -47 -12 -6 6 -7 15 -3 22 10 16 50 8 50 -10z m1375 0 c0 -5 -4 -10 -10
-10 -5 0 -10 5 -10 10 0 6 5 10 10 10 6 0 10 -4 10 -10z m-492 -33 c2 -19 -1
-27 -12 -27 -20 0 -29 16 -21 41 9 27 29 19 33 -14z m-438 -68 c0 -13 -10 -20
-35 -25 -58 -11 -94 39 -37 52 15 3 32 7 37 9 16 4 35 -16 35 -36z m-415 11
c7 -11 -16 -28 -45 -32 -18 -2 -26 2 -28 16 -2 10 1 22 8 26 13 8 58 1 65 -10z
m264 6 c15 -18 5 -41 -24 -60 -27 -18 -65 -21 -65 -6 0 6 7 10 15 10 9 0 15 9
15 23 0 41 36 61 59 33z m687 -51 c16 -13 17 -16 4 -25 -24 -16 -80 -12 -87 6
-12 32 48 46 83 19z m-343 -2 c2 -5 7 -20 11 -35 6 -25 4 -28 -19 -28 -18 0
-26 7 -31 24 -3 14 -3 30 1 35 7 13 32 15 38 4z m645 -14 c-2 -6 -8 -10 -13
-10 -5 0 -11 4 -13 10 -2 6 4 11 13 11 9 0 15 -5 13 -11z m167 -8 c17 -10 31
-27 33 -39 3 -20 0 -22 -58 -20 -33 1 -59 4 -57 7 14 28 43 71 47 70 3 0 19
-8 35 -18z m-1069 -50 c-9 -13 -16 -14 -35 -2 -12 8 -13 12 -1 26 12 14 15 14
28 1 8 -8 11 -19 8 -25z m115 28 c16 -8 18 -13 8 -25 -18 -22 -39 -17 -39 11
0 28 3 29 31 14z m-511 -19 c0 -22 -7 -25 -29 -11 -16 10 -6 31 15 31 8 0 14
-9 14 -20z m181 -31 c34 -34 9 -59 -47 -45 -29 8 -34 52 -6 59 30 8 32 7 53
-14z m966 6 c1 -5 -2 -17 -7 -25 -9 -13 -11 -13 -20 0 -15 23 -12 42 7 38 9
-2 18 -7 20 -13z m641 -48 c2 -18 -2 -29 -13 -33 -24 -9 -39 10 -31 41 9 35
40 30 44 -8z m-1322 -9 c7 -22 -16 -48 -41 -48 -7 0 -17 -12 -23 -26 -7 -14
-17 -22 -22 -19 -15 9 -12 55 4 55 7 0 19 14 26 30 15 35 45 40 56 8z m285 12
c30 -17 24 -46 -12 -59 -49 -17 -77 -14 -84 10 -14 43 47 75 96 49z m-832 -9
c18 -11 5 -31 -20 -31 -18 0 -26 20 -12 33 8 9 15 9 32 -2z m1040 -7 l32 -7
-27 -13 c-44 -23 -87 -13 -69 16 7 12 21 12 64 4z m-954 -53 c7 -12 -12 -24
-25 -16 -11 7 -4 25 10 25 5 0 11 -4 15 -9z m1445 -25 c20 -26 8 -61 -22 -64
-26 -3 -28 -1 -28 31 0 48 24 64 50 33z m240 -29 c0 -22 -11 -27 -33 -16 -16
9 -17 13 -6 20 21 13 39 11 39 -4z m-1600 -12 c0 -8 -7 -15 -16 -15 -14 0 -14
3 -4 15 7 8 14 15 16 15 2 0 4 -7 4 -15z m-179 -17 c2 -23 -3 -43 -14 -56 -8
-11 -13 -10 -25 2 -13 12 -13 20 -4 41 12 26 41 35 43 13z m301 -40 c4 -46
-16 -63 -38 -33 -17 24 -18 72 -1 78 24 8 35 -5 39 -45z m156 21 c1 -9 -6 -26
-16 -40 -17 -21 -23 -22 -46 -11 -28 12 -34 40 -14 60 18 18 72 11 76 -9z
m730 -1 c-2 -13 -10 -23 -18 -23 -8 0 -16 10 -18 23 -3 17 2 22 18 22 16 0 21
-5 18 -22z m106 0 c10 -38 7 -58 -9 -58 -17 0 -35 30 -35 59 0 29 36 28 44 -1z
m-456 0 c15 -15 16 -50 1 -65 -8 -8 -18 -8 -35 -1 -26 12 -30 28 -14 59 12 22
30 25 48 7z m1037 2 c3 -5 -1 -10 -10 -10 -9 0 -13 5 -10 10 3 6 8 10 10 10 2
0 7 -4 10 -10z m-390 -10 c-3 -5 -12 -10 -18 -10 -7 0 -6 4 3 10 19 12 23 12
15 0z m-945 -31 c0 -10 -7 -19 -15 -19 -15 0 -21 31 -9 43 11 10 24 -3 24 -24z
m-440 -15 c0 -28 -4 -35 -16 -32 -40 8 -44 68 -4 68 16 0 20 -6 20 -36z m-101
-38 c14 -17 4 -46 -15 -46 -18 0 -28 24 -20 45 7 19 20 19 35 1z m199 -14 c4
-27 -13 -35 -53 -24 -40 11 -45 39 -8 45 46 7 58 3 61 -21z m1235 13 c8 -18
-11 -31 -25 -17 -11 11 -3 32 12 32 4 0 10 -7 13 -15z m197 -75 c0 -5 -4 -10
-10 -10 -5 0 -10 5 -10 10 0 6 5 10 10 10 6 0 10 -4 10 -10z m-1340 -20 c0
-23 -18 -33 -48 -28 -16 2 -18 7 -11 26 11 30 59 31 59 2z m1310 -10 c0 -5 -9
-10 -20 -10 -11 0 -20 5 -20 10 0 6 9 10 20 10 11 0 20 -4 20 -10z m-1443 -46
c8 -20 -19 -46 -39 -39 -19 7 -31 32 -22 46 9 15 54 10 61 -7z m1534 -9 c-1
-15 -24 -12 -29 3 -3 9 2 13 12 10 10 -1 17 -7 17 -13z m-1691 -53 c0 -14 -11
-21 -26 -15 -21 8 -17 23 6 23 11 0 20 -4 20 -8z"/>
<path d="M7284 6695 c-7 -17 4 -37 17 -30 12 8 12 45 -1 45 -6 0 -13 -7 -16
-15z"/>
<path d="M4238 10696 c-23 -23 -32 -56 -19 -70 13 -12 580 -22 1332 -25 380
-1 399 1 399 35 0 26 -77 33 -445 39 -209 3 -441 10 -515 15 -74 5 -270 12
-436 16 -270 6 -302 5 -316 -10z"/>
<path d="M11540 10707 c-5 -4 -142 -10 -580 -22 -102 -3 -297 -10 -435 -16
-137 -6 -273 -11 -302 -10 -46 2 -54 -1 -69 -24 -13 -21 -15 -31 -6 -50 l12
-25 172 0 c175 1 343 10 521 29 54 6 305 15 556 21 252 5 466 12 475 16 24 9
19 26 -17 54 -29 24 -39 25 -177 28 -80 2 -147 2 -150 -1z"/>
<path d="M4961 8841 c-93 -5 -116 -9 -125 -23 -8 -13 -8 -23 0 -35 10 -16 36
-18 265 -20 162 -2 268 -7 292 -15 46 -14 72 -2 72 33 0 16 -11 29 -35 43 -30
18 -53 21 -195 22 -88 1 -211 -2 -274 -5z"/>
<path d="M4973 8384 c-30 -21 -29 -45 3 -75 22 -21 38 -25 127 -30 56 -4 172
-7 258 -8 131 -1 158 1 163 14 9 24 -5 73 -23 81 -16 7 -98 11 -346 17 -66 1
-129 6 -140 10 -12 4 -29 0 -42 -9z"/>
<path d="M5190 7869 c-129 -4 -249 -12 -267 -17 -17 -6 -34 -8 -37 -5 -3 4
-23 -1 -43 -10 -21 -8 -60 -18 -88 -21 -54 -7 -78 -22 -57 -35 9 -5 713 -7
774 -2 3 1 9 14 13 30 8 39 -9 71 -38 69 -12 -1 -128 -5 -257 -9z"/>
<path d="M4435 7800 c-4 -6 8 -10 30 -10 22 0 34 4 30 10 -3 6 -17 10 -30 10
-13 0 -27 -4 -30 -10z"/>
<path d="M7574 7175 c-7 -18 14 -75 27 -75 5 0 9 20 9 45 0 34 -4 45 -15 45
-9 0 -18 -7 -21 -15z"/>
<path d="M9950 6953 c-23 -16 -26 -55 -6 -72 11 -9 149 -12 534 -12 501 0 521
-1 557 -20 49 -26 79 -22 83 12 2 14 -5 35 -15 47 -16 19 -32 22 -163 28 -80
3 -158 8 -175 10 -16 2 -154 6 -305 9 -151 3 -323 7 -383 8 -79 3 -113 0 -127
-10z"/>
<path d="M7571 6923 c-10 -21 -9 -29 3 -41 20 -21 36 -6 36 34 0 41 -21 46
-39 7z"/>
<path d="M7580 6799 c0 -24 23 -21 28 4 2 10 -3 17 -12 17 -10 0 -16 -9 -16
-21z"/>
<path d="M7582 6695 c2 -14 8 -26 13 -26 6 0 11 12 13 26 2 18 -1 25 -13 25
-12 0 -15 -7 -13 -25z"/>
<path d="M7585 6589 c-3 -13 -5 -67 -5 -119 1 -52 1 -106 0 -120 -4 -83 8
-339 18 -355 19 -36 23 2 17 210 -2 110 -4 241 -5 290 0 92 -13 143 -25 94z"/>
<path d="M9967 6523 c-30 -29 39 -128 96 -138 20 -4 50 1 77 11 37 14 96 18
340 24 162 3 303 10 313 14 13 6 17 17 15 40 l-3 31 -365 0 c-265 0 -375 4
-400 13 -39 13 -63 15 -73 5z"/>
<path d="M5939 6515 c-5 -4 -323 -11 -1068 -21 -244 -3 -454 -10 -467 -14 -30
-12 -31 -35 -1 -52 29 -17 1547 -16 1590 1 32 13 42 31 33 66 -5 21 -12 25
-45 25 -21 0 -40 -2 -42 -5z"/>
<path d="M11632 6472 c-42 -12 -28 -27 53 -55 90 -32 232 -44 345 -30 64 8 65
9 65 38 l0 30 -150 7 c-82 3 -181 8 -220 11 -38 3 -80 2 -93 -1z"/>
<path d="M10214 6035 c-10 -41 7 -59 62 -67 27 -3 85 -12 129 -18 44 -7 143
-13 220 -15 117 -2 148 -6 185 -24 52 -24 129 -27 260 -10 47 5 228 11 403 12
l317 3 30 26 c31 27 36 43 20 68 -12 19 -169 17 -317 -5 -56 -8 -180 -16 -275
-18 -150 -2 -177 0 -206 16 -28 16 -71 18 -360 23 -180 3 -345 10 -367 14 -22
5 -52 12 -67 16 -24 5 -28 3 -34 -21z"/>
<path d="M5240 6031 c-58 -4 -236 -5 -395 -2 -160 2 -308 1 -329 -3 -37 -7
-38 -9 -32 -39 4 -17 10 -35 15 -40 5 -5 151 -12 323 -15 327 -5 468 4 511 33
20 13 63 16 225 18 110 1 204 5 207 9 4 4 5 14 1 23 -5 14 -24 16 -123 13 -65
-1 -158 0 -208 4 -49 3 -137 2 -195 -1z"/>
<path d="M11190 5507 c-25 -4 -96 -11 -159 -15 -127 -8 -144 -17 -125 -69 10
-28 10 -28 89 -25 44 2 100 8 125 14 25 6 233 13 462 17 229 3 420 9 424 14
14 14 -11 26 -91 46 -69 17 -122 20 -380 23 -165 2 -321 0 -345 -5z"/>
<path d="M8481 3516 c-14 -17 -1 -28 19 -16 11 7 12 12 4 20 -8 8 -14 7 -23
-4z"/>
<path d="M8418 3464 c-24 -24 -100 -30 -120 -10 -16 15 -78 23 -78 10 0 -4 8
-13 17 -20 10 -7 15 -16 11 -19 -4 -4 -14 0 -23 9 -20 20 -18 20 -68 -6 -23
-11 -67 -26 -97 -32 -45 -9 -55 -15 -55 -31 0 -19 7 -20 156 -20 134 0 159 3
183 19 16 10 49 23 75 30 44 10 46 13 49 49 3 30 0 37 -15 37 -10 0 -26 -7
-35 -16z"/>
</g>
</svg>
